<svg xmlns="http://www.w3.org/2000/svg" xmlns:xlink="http://www.w3.org/1999/xlink" width="16" height="4" version="1.1" viewBox="0 0 16 4"><title>D3F7E791-1C0A-49B2-AF4F-465EC07DD3E9</title><desc>Created with sketchtool.</desc><g id="App-UI" fill="none" fill-rule="evenodd" stroke="none" stroke-width="1"><g id="Basics" fill="#BFC3C7" fill-rule="nonzero" transform="translate(-1304.000000, -23.000000)"><g id="App-Unsigned" transform="translate(1152.000000, 13.500000)"><g id="IconDots" transform="translate(152.000000, 9.500000)"><path id="Shape" d="M12,2 C12,0.8954305 12.8954305,0 14,0 C15.1045695,0 16,0.8954305 16,2 C16,3.1045695 15.1045695,4 14,4 C12.8954305,4 12,3.1045695 12,2 L12,2 Z M6,2 C6,0.8954305 6.8954305,0 8,0 C9.1045695,0 10,0.8954305 10,2 C10,3.1045695 9.1045695,4 8,4 C6.8954305,4 6,3.1045695 6,2 L6,2 Z M0,2 C0,0.8954305 0.8954305,0 2,0 C3.1045695,0 4,0.8954305 4,2 C4,3.1045695 3.1045695,4 2,4 C0.8954305,4 0,3.1045695 0,2 Z"/></g></g></g></g></svg>