<?xml version="1.0" encoding="UTF-8"?>
<svg width="27px" height="20px" viewBox="0 0 27 20" version="1.1" xmlns="http://www.w3.org/2000/svg" xmlns:xlink="http://www.w3.org/1999/xlink">
    <!-- Generator: sketchtool 54.1 (76490) - https://sketchapp.com -->
    <title>557495C2-72E4-4CBC-AE08-D34D08B7CB8A</title>
    <desc>Created with sketchtool.</desc>
    <g id="App-UI" stroke="none" stroke-width="1" fill="none" fill-rule="evenodd">
        <g id="Overview" transform="translate(-20.000000, -15.000000)" fill="#BFC3C7" fill-rule="nonzero">
            <g id="App-Header">
                <path d="M33.5050393,19.0281889 C33.5033597,19.0281493 33.5016799,19.0281144 33.5,19.0280844 C33.4983201,19.0281144 33.4966403,19.0281493 33.4949607,19.0281889 C33.3847122,19.0266828 33.2742344,19.0461159 33.1690486,19.0905635 C32.5723387,19.3431698 32.1962455,19.9909223 31.9602987,20.6381389 C31.7554896,21.1998851 31.6648347,21.8032681 31.6635086,22.398613 L31.6618642,22.4765276 C31.6600076,22.5068576 31.6575144,22.5370803 31.6543317,22.5671958 C31.6762395,24.0855666 31.96189,25.6152441 32.5625253,27.0121881 C33.2351964,28.5766968 34.3044364,30.0159205 35.8141139,30.6737472 C36.9530028,31.1701181 38.2154878,31.0530318 39.2477551,30.4684041 C40.5293365,29.7425226 41.4539212,28.4589675 42.0591714,27.0805644 C43.3163519,24.2157816 43.3465879,20.7231269 42.0920597,17.7833231 C43.3147605,17.1499318 43.3121083,15.8870074 43.3121083,15.8870074 C43.3121083,15.8870074 44.4573626,16.7077904 45.7453095,16.1924499 C47.4602735,20.2110016 47.4188979,24.9424132 45.6105737,28.9003051 C44.5533751,31.2142197 42.8368198,33.2413934 40.590339,34.2843456 C38.5905202,35.2129444 36.2390091,35.2361473 34.2375989,34.363975 C32.4390882,33.5799523 30.9763029,32.1674146 29.9238784,30.5249377 C28.3996664,28.1461301 27.677875,25.2501064 27.6746392,22.3963624 L27.6864684,22.3963624 C27.6855666,22.3663004 27.6851953,22.3362384 27.6855136,22.3061229 C27.7086945,19.7398699 28.7603234,17.1260859 30.8695752,15.7848182 C31.6442,15.2922519 32.549423,15.0102267 33.4631333,15.0001524 C33.4735916,15.0000712 33.4843549,15.0000207 33.4949607,15.0000011 C33.5087525,14.9999917 33.5230748,15.0000452 33.5368667,15.0001524 C34.450577,15.0102267 35.3558,15.2922519 36.1304248,15.7848182 C38.2396766,17.1260859 39.2913055,19.7398699 39.3144864,22.3061229 C39.3148047,22.3362384 39.3144334,22.3663004 39.3135316,22.3963624 L39.3253608,22.3963624 C39.3222856,25.1084726 38.6702099,27.8587698 37.2971461,30.1669972 C36.9033153,30.1650152 36.5108698,30.0848432 36.1409266,29.923608 C35.3075933,29.5604914 34.5737871,28.8747077 33.9768225,27.9468458 C34.1470654,27.6441825 34.3004927,27.330783 34.4374747,27.0121881 C35.03811,25.6152441 35.3237605,24.0855666 35.3456683,22.5671958 C35.3424856,22.5370803 35.3399924,22.5068576 35.3381358,22.4765276 L35.3364914,22.398613 C35.3351653,21.8032681 35.2445104,21.1998851 35.0397013,20.6381389 C34.8037545,19.9909223 34.4276613,19.3431698 33.8309514,19.0905635 C33.7257347,19.0461029 33.615223,19.0266714 33.5050393,19.0280087 L33.5050393,19.0281889 Z M32.6203568,34.4241334 C30.6503745,35.2345513 28.3623605,35.1910649 26.409661,34.2843456 C24.1631802,33.2413934 22.4466249,31.2142197 21.3894263,28.9003051 C19.5811021,24.9424132 19.5397265,20.2110016 21.2546905,16.1924499 C22.5426374,16.7077904 23.6878917,15.8870074 23.6878917,15.8870074 C23.6878917,15.8870074 23.6852395,17.1499318 24.9079403,17.7833231 C23.6534121,20.7231269 23.6836481,24.2157816 24.9408286,27.0805644 C25.5460788,28.4589675 26.4706635,29.7425226 27.7522449,30.4684041 C28.2096661,30.727466 28.7122923,30.8947224 29.2293381,30.9574772 C29.231252,30.9604695 29.233167,30.9634609 29.2350832,30.9664514 C30.148161,32.3914554 31.2983755,33.5790064 32.6203568,34.4241334 L32.6203568,34.4241334 Z" id="LogoApp"></path>
            </g>
        </g>
    </g>
</svg>