<?xml version="1.0" encoding="UTF-8" standalone="no"?>
<!-- Created with Inkscape (http://www.inkscape.org/) -->

<svg
   xmlns:dc="http://purl.org/dc/elements/1.1/"
   xmlns:cc="http://creativecommons.org/ns#"
   xmlns:rdf="http://www.w3.org/1999/02/22-rdf-syntax-ns#"
   xmlns:svg="http://www.w3.org/2000/svg"
   xmlns="http://www.w3.org/2000/svg"
   xmlns:sodipodi="http://sodipodi.sourceforge.net/DTD/sodipodi-0.dtd"
   xmlns:inkscape="http://www.inkscape.org/namespaces/inkscape"
   width="128"
   height="128"
   id="svg2"
   inkscape:label="Weblate logo"
   version="1.1"
   inkscape:version="0.91 r13725"
   sodipodi:docname="weblate.svg">
  <defs
     id="defs3" />
  <sodipodi:namedview
     id="base"
     pagecolor="#ffffff"
     bordercolor="#666666"
     borderopacity="1.0"
     inkscape:pageopacity="0.0"
     inkscape:pageshadow="2"
     inkscape:zoom="0.39"
     inkscape:cx="79.316311"
     inkscape:cy="6.8783069"
     inkscape:document-units="px"
     inkscape:current-layer="layer1"
     showgrid="false"
     inkscape:window-width="1366"
     inkscape:window-height="704"
     inkscape:window-x="0"
     inkscape:window-y="27"
     inkscape:window-maximized="0" />
  <metadata
     id="metadata6">
    <rdf:RDF>
      <cc:Work
         rdf:about="">
        <dc:format>image/svg+xml</dc:format>
        <dc:type
           rdf:resource="http://purl.org/dc/dcmitype/StillImage" />
        <dc:title />
      </cc:Work>
    </rdf:RDF>
  </metadata>
  <g
     inkscape:label="Vrstva 1"
     inkscape:groupmode="layer"
     id="layer1"
     transform="translate(0,-924.36218)">
    <g
       style="font-style:normal;font-variant:normal;font-weight:normal;font-stretch:normal;font-size:100px;line-height:125%;font-family:cmmi10;-inkscape-font-specification:cmmi10;text-align:start;letter-spacing:0px;word-spacing:0px;writing-mode:lr-tb;text-anchor:start;fill:#cc0000;fill-opacity:1;stroke:none"
       id="text2992">
      <path
         d="m 15.507451,1003.4852 -4.638672,-63.72067 q -0.341797,-1.46485 -2.1972657,-1.80664 -1.8554687,-0.39063 -4.5898437,-0.39063 -0.9765625,0 -0.9765625,-1.31836 0.3417968,-1.26953 0.5371093,-1.70898 0.1953125,-0.48828 1.1230469,-0.48828 l 23.8281247,0 q 0.976563,0 0.976563,1.31836 -0.390625,2.19726 -1.269531,2.19726 -8.007813,0 -8.496094,2.7832 l 3.564453,50.48829 25,-43.55469 -0.488281,-7.51953 q -0.341797,-1.46485 -2.197266,-1.80664 -1.855469,-0.39063 -4.589844,-0.39063 -1.02539,0 -1.02539,-1.31836 0.341797,-1.26953 0.537109,-1.70898 0.195313,-0.48828 1.171875,-0.48828 l 23.828125,0 q 0.976563,0 0.976563,1.31836 -0.04883,0.24414 -0.195313,0.83007 -0.146484,0.58594 -0.390625,0.97657 -0.244141,0.39062 -0.732422,0.39062 -8.05664,0 -8.496094,2.7832 l 0,0.73243 3.613282,49.75586 27.197265,-47.46094 q 0.585938,-1.07422 0.585938,-2.09961 0,-2.05078 -2.001953,-2.88086 -2.001953,-0.83008 -4.492188,-0.83008 -0.976562,0 -0.976562,-1.31836 0.195312,-0.78125 0.292968,-1.2207 0.146485,-0.43945 0.439454,-0.6836 0.341796,-0.29296 0.976562,-0.29296 l 19.091798,0 q 0.97656,0 0.97656,1.31836 -0.0488,0.24414 -0.19531,0.8789 -0.14649,0.58594 -0.43945,0.97656 -0.24414,0.3418 -0.63477,0.3418 -7.128906,0 -10.839844,6.49414 -0.292968,0.29297 -0.292968,0.29297 l -33.886719,59.13083 q -0.537109,1.0742 -1.708984,1.0742 l -0.78125,0 q -1.220704,0 -1.220704,-1.0742 l -3.808593,-51.51364 -29.394532,51.51364 q -0.732421,1.0742 -1.757812,1.0742 l -0.830078,0 q -1.171875,0 -1.171875,-1.0742 z"
         style=""
         id="path3341" />
    </g>
    <g
       style="font-style:normal;font-variant:normal;font-weight:normal;font-stretch:normal;font-size:100px;line-height:125%;font-family:cmmi10;-inkscape-font-specification:cmmi10;text-align:start;letter-spacing:0px;word-spacing:0px;writing-mode:lr-tb;text-anchor:start;fill:#004276;fill-opacity:1;stroke:none"
       id="text2996">
      <path
         d="m 61.16898,1045.8806 q -0.976563,0 -0.976563,-1.3183 0.04883,-0.2442 0.195313,-0.8301 0.146484,-0.6348 0.390625,-0.9766 0.292968,-0.3906 0.683593,-0.3906 6.103516,0 8.496094,-0.6836 1.31836,-0.4395 1.904297,-2.6856 l 13.720703,-54.93159 q 0.195313,-0.97656 0.195313,-1.36719 0,-1.07422 -1.220703,-1.2207 -1.855469,-0.39063 -7.177735,-0.39063 -0.976562,0 -0.976562,-1.31836 0.341797,-1.26953 0.537109,-1.70898 0.195313,-0.48828 1.123047,-0.48828 l 29.541019,0 q 0.8789,0 0.8789,1.31836 -0.14648,1.02539 -0.34179,1.61133 -0.19532,0.58593 -0.97657,0.58593 -7.373043,0 -9.863278,0.48828 -2.441406,0.43946 -3.027344,2.92969 l -13.671875,54.88284 q -0.439453,1.2207 -0.439453,2.1972 0,0.7813 3.417969,0.7813 l 9.277344,0 q 7.861327,0 12.744137,-3.125 4.88282,-3.125 7.22657,-7.0313 2.34375,-3.955 3.90625,-8.1543 1.61132,-4.248 2.34375,-4.3945 l 0.8789,0 q 1.02539,0 1.02539,1.3184 l -8.88672,24.2187 q -0.14648,0.6836 -0.92773,0.6836 l -50,0 z"
         style=""
         id="path3338" />
    </g>
  </g>
</svg>
