<svg width="24" height="24" version="1.1" viewBox="0 0 24 24" xmlns="http://www.w3.org/2000/svg"><path d="m10 4a4 4 0 0 0-4 4 4 4 0 0 0 4 4 4 4 0 0 0 4-4 4 4 0 0 0-4-4m7.5 9c-2.5 0-4.5 2-4.5 4.5s2 4.5 4.5 4.5 4.5-2 4.5-4.5-2-4.5-4.5-4.5m-7.5 1c-4.42 0-8 1.79-8 4v2h9.5a6.5 6.5 0 0 1-0.5-2.5 6.5 6.5 0 0 1 0.95-3.36c-0.63-0.08-1.27-0.14-1.95-0.14m7.5 0.5c1.66 0 3 1.34 3 3 0 0.56-0.15 1.08-0.42 1.5l-4.08-4.08c0.42-0.27 0.94-0.42 1.5-0.42m-2.58 1.5 4.08 4.08c-0.42 0.27-0.94 0.42-1.5 0.42-1.66 0-3-1.34-3-3 0-0.56 0.15-1.08 0.42-1.5z"/></svg>