<svg width="24" height="24" version="1.1" viewBox="0 0 24 24" xmlns="http://www.w3.org/2000/svg"><path d="m12 15.5a3.5 3.5 0 0 1-3.5-3.5 3.5 3.5 0 0 1 3.5-3.5 3.5 3.5 0 0 1 3.5 3.5 3.5 3.5 0 0 1-3.5 3.5m7.43-2.53c0.04-0.32 0.07-0.64 0.07-0.97s-0.03-0.66-0.07-1l2.11-1.63c0.19-0.15 0.24-0.42 0.12-0.64l-2-3.46c-0.12-0.22-0.39-0.31-0.61-0.22l-2.49 1c-0.52-0.39-1.06-0.73-1.69-0.98l-0.37-2.65c-0.04-0.24-0.25-0.42-0.5-0.42h-4c-0.25 0-0.46 0.18-0.5 0.42l-0.37 2.65c-0.63 0.25-1.17 0.59-1.69 0.98l-2.49-1c-0.22-0.09-0.49 0-0.61 0.22l-2 3.46c-0.13 0.22-0.07 0.49 0.12 0.64l2.11 1.63c-0.04 0.34-0.07 0.67-0.07 1s0.03 0.65 0.07 0.97l-2.11 1.66c-0.19 0.15-0.25 0.42-0.12 0.64l2 3.46c0.12 0.22 0.39 0.3 0.61 0.22l2.49-1.01c0.52 0.4 1.06 0.74 1.69 0.99l0.37 2.65c0.04 0.24 0.25 0.42 0.5 0.42h4c0.25 0 0.46-0.18 0.5-0.42l0.37-2.65c0.63-0.26 1.17-0.59 1.69-0.99l2.49 1.01c0.22 0.08 0.49 0 0.61-0.22l2-3.46c0.12-0.22 0.07-0.49-0.12-0.64l-2.11-1.66z"/></svg>