<svg width="24" height="24" version="1.1" viewBox="0 0 24 24" xmlns="http://www.w3.org/2000/svg"><path d="m12 2a10 10 0 0 0-10 10 10 10 0 0 0 10 10 10 10 0 0 0 10-10 10 10 0 0 0-10-10m0 2a8 8 0 0 1 8 8c0 2.4-1 4.5-2.7 6-1.4-1.3-3.3-2-5.3-2s-3.8 0.7-5.3 2c-1.7-1.5-2.7-3.6-2.7-6a8 8 0 0 1 8-8m2 1.89c-0.38 0.01-0.74 0.26-0.9 0.65l-1.29 3.23-0.1 0.23c-0.71 0.13-1.3 0.6-1.57 1.26-0.41 1.03 0.09 2.19 1.12 2.6s2.19-0.09 2.6-1.12c0.26-0.66 0.14-1.42-0.29-1.98l0.1-0.26 1.29-3.21 0.01-0.03c0.2-0.51-0.05-1.09-0.56-1.3-0.13-0.05-0.26-0.07-0.41-0.07m-4 0.11a1 1 0 0 0-1 1 1 1 0 0 0 1 1 1 1 0 0 0 1-1 1 1 0 0 0-1-1m-3 3a1 1 0 0 0-1 1 1 1 0 0 0 1 1 1 1 0 0 0 1-1 1 1 0 0 0-1-1m10 0a1 1 0 0 0-1 1 1 1 0 0 0 1 1 1 1 0 0 0 1-1 1 1 0 0 0-1-1z"/></svg>