<svg xmlns="http://www.w3.org/2000/svg" width="24" height="24" version="1.1" viewBox="0 0 24 24"><path stroke-width="1.088" d="m12 8.7373a3.2627 3.2627 0 0 0-3.2627 3.2627 3.2627 3.2627 0 0 0 3.2627 3.2627 3.2627 3.2627 0 0 0 3.2627-3.2627 3.2627 3.2627 0 0 0-3.2627-3.2627m0 8.7004a5.4378 5.4378 0 0 1-5.4378-5.4378 5.4378 5.4378 0 0 1 5.4378-5.4378 5.4378 5.4378 0 0 1 5.4378 5.4378 5.4378 5.4378 0 0 1-5.4378 5.4378m0-13.594c-5.4378 0-10.082 3.3823-11.963 8.1567 1.8815 4.7744 6.5253 8.1567 11.963 8.1567 5.4378 0 10.082-3.3823 11.963-8.1567-1.8815-4.7744-6.5253-8.1567-11.963-8.1567z"/></svg>