<svg width="24" height="24" version="1.1" viewBox="0 0 24 24" xmlns="http://www.w3.org/2000/svg"><path d="m2 10.96c-0.5-0.28-0.65-0.89-0.37-1.37l1.5-2.59c0.11-0.2 0.28-0.34 0.47-0.42l7.83-4.4c0.16-0.12 0.36-0.18 0.57-0.18s0.41 0.06 0.57 0.18l7.9 4.44c0.19 0.1 0.35 0.26 0.44 0.46l1.45 2.52c0.28 0.48 0.11 1.09-0.36 1.36l-1 0.58v4.96c0 0.38-0.21 0.71-0.53 0.88l-7.9 4.44c-0.16 0.12-0.36 0.18-0.57 0.18s-0.41-0.06-0.57-0.18l-7.9-4.44c-0.32-0.17-0.53-0.5-0.53-0.88v-5.54c-0.3 0.17-0.68 0.18-1 0m10-6.81v6.7l5.96-3.35-5.96-3.35m-7 11.76 6 3.38v-6.71l-6-3.37v6.7m14 0v-3.22l-5 2.9c-0.33 0.18-0.7 0.17-1 0.01v3.69l6-3.38m-5.15-2.55 6.28-3.63-0.58-1.01-6.28 3.63 0.58 1.01z"/></svg>