<svg width="24" height="24" version="1.1" viewBox="0 0 24 24" xmlns="http://www.w3.org/2000/svg"><path d="m4 6v10h5v-4a2 2 0 0 1 2-2h5a2 2 0 0 1 2 2v4h2v-10h-16m-4 14v-2h4a2 2 0 0 1-2-2v-10a2 2 0 0 1 2-2h16a2 2 0 0 1 2 2v10a2 2 0 0 1-2 2h4v2h-6c0 1.11-0.9 2-2 2h-5a2 2 0 0 1-2-2h-9m11.5 0a0.5 0.5 0 0 0-0.5 0.5 0.5 0.5 0 0 0 0.5 0.5 0.5 0.5 0 0 0 0.5-0.5 0.5 0.5 0 0 0-0.5-0.5m4 0a0.5 0.5 0 0 0-0.5 0.5 0.5 0.5 0 0 0 0.5 0.5 0.5 0.5 0 0 0 0.5-0.5 0.5 0.5 0 0 0-0.5-0.5m-2.5 0v1h1v-1h-1m-2-8v7h5v-7h-5z"/></svg>