<svg width="27" height="20" version="1.1" viewBox="0 0 27 20" xmlns="http://www.w3.org/2000/svg"><g transform="translate(-20 -15)"><path d="m33.505 19.028c-0.0016796-3.96e-5 -0.0033594-7.45e-5 -0.0050393-1.045e-4 -0.0016799 3e-5 -0.0033597 6.49e-5 -0.0050393 1.045e-4 -0.11025-0.0015061-0.22073 0.017927-0.32591 0.062375-0.59671 0.25261-0.9728 0.90036-1.2087 1.5476-0.20481 0.56175-0.29546 1.1651-0.29679 1.7605l-0.0016444 0.077915c-0.0018566 0.03033-0.0043498 0.060553-0.0075325 0.090668 0.021908 1.5184 0.30756 3.048 0.90819 4.445 0.67267 1.5645 1.7419 3.0037 3.2516 3.6616 1.1389 0.49637 2.4014 0.37928 3.4336-0.20534 1.2816-0.72588 2.2062-2.0094 2.8114-3.3878 1.2572-2.8648 1.2874-6.3574 0.032888-9.2972 1.2227-0.63339 1.22-1.8963 1.22-1.8963s1.1453 0.82078 2.4332 0.30544c1.715 4.0186 1.6736 8.75-0.13474 12.708-1.0572 2.3139-2.7738 4.3411-5.0202 5.384-1.9998 0.9286-4.3513 0.9518-6.3527 0.079629-1.7985-0.78402-3.2613-2.1966-4.3137-3.839-1.5242-2.3788-2.246-5.2748-2.2492-8.1286h0.011829c-9.018e-4 -0.030062-0.0012731-0.060124-9.548e-4 -0.09024 0.023181-2.5663 1.0748-5.18 3.1841-6.5213 0.77462-0.49257 1.6798-0.77459 2.5936-0.78467 0.010458-8.12e-5 0.021222-1.317e-4 0.031827-1.513e-4 0.013792-9.4e-6 0.028114 4.41e-5 0.041906 1.513e-4 0.91371 0.010074 1.8189 0.2921 2.5936 0.78467 2.1093 1.3413 3.1609 3.9551 3.1841 6.5213 3.183e-4 0.030116-5.3e-5 0.060178-9.548e-4 0.09024h0.011829c-0.0030752 2.7121-0.65515 5.4624-2.0282 7.7706-0.39383-0.001982-0.78628-0.082154-1.1562-0.24339-0.83333-0.36312-1.5671-1.0489-2.1641-1.9768 0.17024-0.30266 0.32367-0.61606 0.46065-0.93466 0.60064-1.3969 0.88629-2.9266 0.90819-4.445-0.0031827-0.030116-0.0056759-0.060338-0.0075325-0.090668l-0.0016444-0.077915c-0.0013261-0.59534-0.091981-1.1987-0.29679-1.7605-0.23595-0.64722-0.61204-1.295-1.2087-1.5476-0.10522-0.044461-0.21573-0.063892-0.32591-0.062555v1.802e-4zm-0.88468 15.396c-1.97 0.81042-4.258 0.76693-6.2107-0.13979-2.2465-1.043-3.963-3.0701-5.0202-5.384-1.8083-3.9579-1.8497-8.6893-0.13474-12.708 1.2879 0.51534 2.4332-0.30544 2.4332-0.30544s-0.0026522 1.2629 1.22 1.8963c-1.2545 2.9398-1.2243 6.4325 0.032888 9.2972 0.60525 1.3784 1.5298 2.662 2.8114 3.3878 0.45742 0.25906 0.96005 0.42632 1.4771 0.48907 0.0019139 0.0029923 0.0038289 0.0059837 0.0057451 0.0089742 0.91308 1.425 2.0633 2.6126 3.3853 3.4577z"/></g></svg>