<svg xmlns="http://www.w3.org/2000/svg" xmlns:svg="http://www.w3.org/2000/svg" id="Layer_1" width="291.319" height="291.319" x="0" y="0" version="1.1" viewBox="0 0 291.319 291.319" xml:space="preserve"><metadata id="metadata43"/><g id="g6" transform="translate(3.1172818e-4)"><path id="path2" fill="#f4b459" d="m 252.089,239.901 c -120.033,57.126 -194.528,9.331 -242.214,-19.7 -2.95,-1.83 -7.966,0.428 -3.614,5.426 15.886,19.263 67.95,65.692 135.909,65.692 68.005,0 108.462,-37.107 113.523,-43.58 5.026,-6.418 1.476,-9.959 -3.604,-7.838 z M 285.8,221.284 c -3.223,-4.197 -19.6,-4.98 -29.906,-3.714 -10.324,1.229 -25.818,7.538 -24.471,11.325 0.692,1.42 2.103,0.783 9.195,0.146 7.11,-0.71 27.029,-3.223 31.18,2.203 4.17,5.462 -6.354,31.49 -8.275,35.687 -1.857,4.197 0.71,5.28 4.197,2.485 3.441,-2.795 9.668,-10.032 13.847,-20.274 4.151,-10.297 6.682,-24.663 4.233,-27.858 z"/><path id="path4" fill="#484848" d="M 221.71,149.219 V 53.557 C 221.71,37.125 205.815,0 148.689,0 91.572,0 61.184,35.696 61.184,67.85 l 47.74,4.27 c 0,0 10.633,-32.136 35.313,-32.136 24.68,0 22.987,19.992 22.987,24.316 V 85.084 C 135.607,86.149 57.096,95.18 57.096,161.382 c 0,71.191 89.863,74.177 119.332,28.167 1.138,1.866 2.431,3.696 4.051,5.408 10.843,11.398 25.308,24.981 25.308,24.981 l 36.852,-36.415 c 0.019,-0.01 -20.929,-16.452 -20.929,-34.304 z m -109.199,3.359 c 0,-30.579 32.764,-36.779 54.722,-37.507 v 26.319 c -0.009,52.137 -54.722,44.244 -54.722,11.188 z"/></g></svg>