<svg width="291.32" height="291.32" version="1.1" viewBox="0 0 291.32 291.32" xmlns="http://www.w3.org/2000/svg"><path d="m252.09 239.9c-120.03 57.126-194.53 9.331-242.21-19.7-2.95-1.83-7.966 0.428-3.614 5.426 15.886 19.263 67.95 65.692 135.91 65.692 68.005 0 108.46-37.107 113.52-43.58 5.026-6.418 1.476-9.959-3.604-7.838zm33.711-18.617c-3.223-4.197-19.6-4.98-29.906-3.714-10.324 1.229-25.818 7.538-24.471 11.325 0.692 1.42 2.103 0.783 9.195 0.146 7.11-0.71 27.029-3.223 31.18 2.203 4.17 5.462-6.354 31.49-8.275 35.687-1.857 4.197 0.71 5.28 4.197 2.485 3.441-2.795 9.668-10.032 13.847-20.274 4.151-10.297 6.682-24.663 4.233-27.858z" fill="#f4b459"/><path d="m221.71 149.22v-95.662c0-16.432-15.895-53.557-73.021-53.557-57.117 0-87.505 35.696-87.505 67.85l47.74 4.27s10.633-32.136 35.313-32.136 22.987 19.992 22.987 24.316v20.784c-31.617 1.065-110.13 10.096-110.13 76.298 0 71.191 89.863 74.177 119.33 28.167 1.138 1.866 2.431 3.696 4.051 5.408 10.843 11.398 25.308 24.981 25.308 24.981l36.852-36.415c0.019-0.01-20.929-16.452-20.929-34.304zm-109.2 3.359c0-30.579 32.764-36.779 54.722-37.507v26.319c-9e-3 52.137-54.722 44.244-54.722 11.188z" fill="#484848"/></svg>