<svg width="95.914" height="95.914" version="1.1" viewBox="0 0 95.914 95.914" xmlns="http://www.w3.org/2000/svg"><path d="m73.458 77.592-9.738-29.637 25.491-18.311h-31.509l-9.7386-29.635-3e-3 -8e-3h31.514l9.7409 29.641 5.8e-4 -5.7e-4 8e-3 -5e-3c5.6567 17.195-0.16934 36.753-15.766 47.956zm-50.992 0-8e-3 6e-3 25.497 18.316 25.503-18.321-25.495-18.317-25.497 18.316zm-15.759-47.955c-5.9549 18.126 0.95762 37.333 15.754 47.959l2e-3 -9e-3 9.7391-29.635-25.485-18.308h31.502l9.7391-29.635 2e-3 -8e-3h-31.516z" fill="#eb5424" fill-rule="evenodd"/></svg>