<svg xmlns="http://www.w3.org/2000/svg" xmlns:svg="http://www.w3.org/2000/svg" id="svg13" width="95.914" height="95.914" version="1.1" viewBox="0 0 95.914 95.914"><metadata id="metadata19"/><title id="title2">Auth0-Logo-Light-BG</title><desc id="desc4">Created with Sketch.</desc><path id="path8" fill="#eb5424" fill-rule="evenodd" stroke="none" stroke-width="1" d="m 73.458484,77.591857 -9.73798,-29.63657 25.49098,-18.31143 h -31.50946 l -9.73857,-29.63542826 -0.003,-0.007999992 h 31.5141 L 89.215434,29.640997 l 5.8e-4,-5.7e-4 0.008,-0.005 c 5.65669,17.19546 -0.16934,36.75317 -15.76573,47.95603 z m -50.99237,0 -0.008,0.006 25.49734,18.316 25.50312,-18.32114 -25.49503,-18.31658 -25.49734,18.316 v 0 z M 6.7067542,29.636427 v 0 c -5.95490995,18.12628 0.95762,37.33314 15.7541598,47.95886 l 0.002,-0.009 9.73914,-29.63486 -25.4852098,-18.308 H 38.218814 l 9.73914,-29.63542726 0.002,-0.007999993176 h -31.51581 z"/></svg>