<svg xmlns="http://www.w3.org/2000/svg" xmlns:svg="http://www.w3.org/2000/svg" id="Layer_1" width="50.001" height="50.001" x="0" y="0" enable-background="new 0 0 50 50" version="1.1" viewBox="0 0 50.001 50.001" xml:space="preserve"><metadata id="metadata25"/><path id="path2" fill="#59b4d9" d="m 25.001,50.001002 c -1.232,0 -2.392,-0.48 -3.261,-1.352 l -20.389,-20.388 c -0.859,-0.859 -1.351,-2.046 -1.351,-3.261 0,-1.214 0.492,-2.402 1.351,-3.26 L 21.74,1.352001 C 22.611,0.4800011 23.769,1.0986328e-6 25.001,1.0986328e-6 c 1.231,0 2.39,0.4800000013672 3.261,1.3519999013672 l 20.386,20.388001 c 0.873,0.868 1.352,2.027 1.352,3.26 0,1.233 -0.479,2.392 -1.353,3.263 l -20.385,20.386 c -0.87,0.872 -2.03,1.352 -3.261,1.352"/><path id="path4" fill="#fff" d="m 38.614,21.093002 c -2.16,0 -3.91,1.75 -3.91,3.909 0,0.792 0.239,1.527 0.645,2.143 l -7.744,7.744 c -0.206,-0.144 -0.427,-0.264 -0.656,-0.373 v -19.757 c 1.167,-0.676 1.961,-1.924 1.961,-3.37 0,-2.159001 -1.75,-3.909001 -3.91,-3.909001 -2.158,0 -3.908,1.75 -3.908,3.909001 0,1.446 0.794,2.694 1.96,3.37 v 19.756 c -0.219,0.104 -0.434,0.216 -0.632,0.353 l -7.753,-7.753 c 0.394,-0.61 0.628,-1.333 0.628,-2.113 0,-2.159 -1.75,-3.909 -3.908,-3.909 -2.16,0 -3.91,1.75 -3.91,3.909 0,2.159 1.75,3.909 3.91,3.909 0.448,0 0.872,-0.091 1.274,-0.23 l 8.15,8.15 c -0.234,0.548 -0.364,1.15 -0.364,1.783 0,2.513 2.038,4.551 4.551,4.551 2.514,0 4.551,-2.038 4.551,-4.551 0,-0.621 -0.126,-1.212 -0.351,-1.751 l 8.173,-8.172 c 0.392,0.132 0.804,0.22 1.241,0.22 2.158,0 3.908,-1.75 3.908,-3.909 0,-2.159 -1.749,-3.909 -3.906,-3.909 z"/><rect id="rect6" width="2.523" height="20.676" x="-10.945" y="-46.285" fill="#fff" stroke-width="1" opacity=".5" transform="rotate(134.9919)"/><rect id="rect8" width="2.524" height="20.677" x="24.425" y="-9.75" fill="#fff" stroke-width="1" opacity=".5" transform="rotate(45)"/><path id="path10" fill="#b8d432" d="m 27.665,38.614002 c 0,1.496 -1.214,2.709 -2.71,2.709 -1.497,0 -2.709,-1.213 -2.709,-2.709 0,-1.496 1.212,-2.709 2.709,-2.709 1.495,0 2.71,1.213 2.71,2.709"/><path id="path12" fill="#b8d432" d="m 27.174,11.389002 c 0,1.201 -0.973,2.174 -2.174,2.174 -1.201,0 -2.174,-0.973 -2.174,-2.174 0,-1.201 0.973,-2.174001 2.174,-2.174001 1.201,0 2.174,0.973001 2.174,2.174001"/><path id="path14" fill="#b8d432" d="m 13.563,25.001002 c 0,1.201 -0.975,2.174 -2.174,2.174 -1.201,0 -2.174,-0.973 -2.174,-2.174 0,-1.201 0.973,-2.174 2.174,-2.174 1.199,0 2.174,0.973 2.174,2.174"/><path id="path16" fill="#b8d432" d="m 40.788,25.001002 c 0,1.201 -0.975,2.174 -2.175,2.174 -1.2,0 -2.174,-0.973 -2.174,-2.174 0,-1.201 0.974,-2.174 2.174,-2.174 1.2,0 2.175,0.973 2.175,2.174"/><path id="path18" fill="#fff" d="M 28.262,1.352001 C 27.391,0.4800011 26.233,1.0986328e-6 25.001,1.0986328e-6 23.77,1.0986328e-6 22.612,0.4800011 21.741,1.352001 L 1.352,21.740002 c -0.86,0.858 -1.352,2.046 -1.352,3.26 0,1.215 0.492,2.403 1.352,3.261 l 11.543,11.544 L 34.61,7.699001 Z" opacity=".1"/></svg>