<svg width="50.001" height="50.001" enable-background="new 0 0 50 50" version="1.1" viewBox="0 0 50.001 50.001" xmlns="http://www.w3.org/2000/svg"><path d="m25.001 50.001c-1.232 0-2.392-0.48-3.261-1.352l-20.389-20.388c-0.859-0.859-1.351-2.046-1.351-3.261 0-1.214 0.492-2.402 1.351-3.26l20.389-20.388c0.871-0.872 2.029-1.352 3.261-1.352 1.231 0 2.39 0.48 3.261 1.352l20.386 20.388c0.873 0.868 1.352 2.027 1.352 3.26s-0.479 2.392-1.353 3.263l-20.385 20.386c-0.87 0.872-2.03 1.352-3.261 1.352" fill="#59b4d9"/><path d="m38.614 21.093c-2.16 0-3.91 1.75-3.91 3.909 0 0.792 0.239 1.527 0.645 2.143l-7.744 7.744c-0.206-0.144-0.427-0.264-0.656-0.373v-19.757c1.167-0.676 1.961-1.924 1.961-3.37 0-2.159-1.75-3.909-3.91-3.909-2.158 0-3.908 1.75-3.908 3.909 0 1.446 0.794 2.694 1.96 3.37v19.756c-0.219 0.104-0.434 0.216-0.632 0.353l-7.753-7.753c0.394-0.61 0.628-1.333 0.628-2.113 0-2.159-1.75-3.909-3.908-3.909-2.16 0-3.91 1.75-3.91 3.909s1.75 3.909 3.91 3.909c0.448 0 0.872-0.091 1.274-0.23l8.15 8.15c-0.234 0.548-0.364 1.15-0.364 1.783 0 2.513 2.038 4.551 4.551 4.551 2.514 0 4.551-2.038 4.551-4.551 0-0.621-0.126-1.212-0.351-1.751l8.173-8.172c0.392 0.132 0.804 0.22 1.241 0.22 2.158 0 3.908-1.75 3.908-3.909s-1.749-3.909-3.906-3.909z" fill="#fff"/><rect transform="rotate(134.99)" x="-10.945" y="-46.285" width="2.523" height="20.676" fill="#fff" opacity=".5"/><rect transform="rotate(45)" x="24.425" y="-9.75" width="2.524" height="20.677" fill="#fff" opacity=".5"/><path d="m27.665 38.614c0 1.496-1.214 2.709-2.71 2.709-1.497 0-2.709-1.213-2.709-2.709s1.212-2.709 2.709-2.709c1.495 0 2.71 1.213 2.71 2.709" fill="#b8d432"/><path d="m27.174 11.389c0 1.201-0.973 2.174-2.174 2.174s-2.174-0.973-2.174-2.174 0.973-2.174 2.174-2.174 2.174 0.973 2.174 2.174" fill="#b8d432"/><path d="m13.563 25.001c0 1.201-0.975 2.174-2.174 2.174-1.201 0-2.174-0.973-2.174-2.174s0.973-2.174 2.174-2.174c1.199 0 2.174 0.973 2.174 2.174" fill="#b8d432"/><path d="m40.788 25.001c0 1.201-0.975 2.174-2.175 2.174s-2.174-0.973-2.174-2.174 0.974-2.174 2.174-2.174 2.175 0.973 2.175 2.174" fill="#b8d432"/><path d="m28.262 1.352c-0.871-0.872-2.029-1.352-3.261-1.352-1.231 0-2.389 0.48-3.26 1.352l-20.389 20.388c-0.86 0.858-1.352 2.046-1.352 3.26 0 1.215 0.492 2.403 1.352 3.261l11.543 11.544 21.715-32.106z" fill="#fff" opacity=".1"/></svg>