<svg xmlns="http://www.w3.org/2000/svg" xmlns:svg="http://www.w3.org/2000/svg" id="svg4604" width="62.422" height="62.422" version="1.1" viewBox="0 0 16.516 16.516"><defs id="defs4598"><linearGradient id="New_Gradient_Swatch_1" x1="64.01" x2="32.99" y1="30.27" y2="54.48" gradientUnits="userSpaceOnUse"><stop id="stop4" offset=".18" stop-color="#0052cc"/><stop id="stop6" offset="1" stop-color="#2684ff"/></linearGradient></defs><metadata id="metadata4601"/><g id="layer1" transform="translate(-24.490242,-47.95449)"><g id="g4581" transform="matrix(0.26458333,0,0,0.26458333,24.497066,47.130523)"><polygon id="polygon31" fill="none" points="24.7 43.51 37.75 43.51 40.9 25.12 21.23 25.12" class="cls-2"/><path id="path33" fill="#2684ff" d="M 2,6.26 A 2,2 0 0 0 0,8.58 l 8.49,51.54 a 2.72,2.72 0 0 0 2.66,2.27 h 40.73 a 2,2 0 0 0 2,-1.68 L 62.37,8.59 a 2,2 0 0 0 -2,-2.32 z m 35.75,37.25 h -13 L 21.23,25.12 H 40.9 Z" class="cls-3"/><path id="path35" fill="url(#New_Gradient_Swatch_1)" d="M 59.67,25.12 H 40.9 l -3.15,18.39 h -13 L 9.4,61.73 a 2.71,2.71 0 0 0 1.75,0.66 h 40.74 a 2,2 0 0 0 2,-1.68 z" class="cls-4"/></g></g></svg>