<svg xmlns="http://www.w3.org/2000/svg" width="62.422" height="62.422" version="1.1" viewBox="0 0 16.516 16.516"><defs><linearGradient id="New_Gradient_Swatch_1" x1="64.01" x2="32.99" y1="30.27" y2="54.48" gradientTransform="matrix(.26458 0 0 .26458 .007 -.823)" gradientUnits="userSpaceOnUse"><stop offset=".18" stop-color="#0052cc"/><stop offset="1" stop-color="#2684ff"/></linearGradient></defs><polygon fill="none" points="24.7 43.51 37.75 43.51 40.9 25.12 21.23 25.12" class="cls-2" transform="matrix(.26458 0 0 .26458 .007 -.823)"/><path fill="#2684ff" stroke-width=".265" d="m0.53616 0.83327a0.52916 0.52916 0 0 0-0.52916 0.61383l2.2463 13.636a0.71966 0.71966 0 0 0 0.70378 0.6006h10.776a0.52916 0.52916 0 0 0 0.52916-0.44449l2.2463-13.79a0.52916 0.52916 0 0 0-0.52916-0.61383zm9.4587 9.8556h-3.4395l-0.93132-4.8656h5.2043z" class="cls-3"/><path fill="url(#New_Gradient_Swatch_1)" stroke-width=".265" d="m15.794 5.8232h-4.9662l-0.83343 4.8656h-3.4395l-4.0613 4.8206a0.71701 0.71701 0 0 0 0.46302 0.17462h10.779a0.52916 0.52916 0 0 0 0.52916-0.44449z" class="cls-4"/></svg>