<svg width="62.422" height="62.422" version="1.1" viewBox="0 0 16.516 16.516" xmlns="http://www.w3.org/2000/svg"><defs><linearGradient id="New_Gradient_Swatch_1" x1="64.01" x2="32.99" y1="30.27" y2="54.48" gradientUnits="userSpaceOnUse"><stop stop-color="#0052cc" offset=".18"/><stop stop-color="#2684ff" offset="1"/></linearGradient></defs><g transform="translate(-24.49 -47.954)"><g transform="matrix(.26458 0 0 .26458 24.497 47.131)"><polygon class="cls-2" points="24.7 43.51 37.75 43.51 40.9 25.12 21.23 25.12" fill="none"/><path class="cls-3" d="m2 6.26a2 2 0 0 0-2 2.32l8.49 51.54a2.72 2.72 0 0 0 2.66 2.27h40.73a2 2 0 0 0 2-1.68l8.49-52.12a2 2 0 0 0-2-2.32zm35.75 37.25h-13l-3.52-18.39h19.67z" fill="#2684ff"/><path class="cls-4" d="m59.67 25.12h-18.77l-3.15 18.39h-13l-15.35 18.22a2.71 2.71 0 0 0 1.75 0.66h40.74a2 2 0 0 0 2-1.68z" fill="url(#New_Gradient_Swatch_1)"/></g></g></svg>