<svg xmlns="http://www.w3.org/2000/svg" width="1365.3" height="1365.3" version="1.1" viewBox="0 0 1365.3 1365.3"><path fill="#1877f2" stroke-width=".133" d="m1365.3 682.65c0-377.02-305.63-682.65-682.65-682.65s-682.65 305.63-682.65 682.65c0 340.72 249.63 623.14 575.99 674.36v-477.03h-173.33v-197.33h173.33v-150.4c0-171.09 101.91-265.59 257.85-265.59 74.687 0 152.81 13.333 152.81 13.333v168h-86.081c-84.802 0-111.25 52.621-111.25 106.61v128.05h189.33l-30.266 197.33h-159.06v477.03c326.35-51.212 575.99-333.63 575.99-674.36"/><path fill="#fff" stroke-width=".133" d="m948.38 879.98 30.266-197.33h-189.33v-128.05c0-53.985 26.446-106.61 111.25-106.61h86.081v-168s-78.122-13.333-152.81-13.333c-155.93 0-257.85 94.504-257.85 265.59v150.4h-173.33v197.33h173.33v477.03c34.755 5.4529 70.377 8.293 106.66 8.293s71.909-2.8401 106.66-8.293v-477.03h159.06"/></svg>