<svg xmlns="http://www.w3.org/2000/svg" width="863.12" height="863.12" version="1.1" viewBox="0 0 228.37 228.37"><path fill="#294172" fill-rule="evenodd" stroke-width="5.828" d="m226.12 114.19c0-63.064-50.114-114.19-111.94-114.19-61.793 0-111.88 51.083-111.93 114.11l-0.00361-4e-3v88.363l0.00361 3e-3c0.034035 14.31 11.41 25.895 25.447 25.895 0.03946 0 0.07891-4e-3 0.12017-4e-3l0.0071 4e-3h86.399c61.799-0.0251 111.89-51.132 111.89-114.18z"/><path fill="#3c6eb4" fill-rule="evenodd" stroke-width="5.828" d="m144.8 27.044c-29.015 0-52.535 23.993-52.535 53.592v28.405h-27.727c-29.017 0-52.534 23.876-52.534 53.472 0 29.599 23.518 53.595 52.534 53.595 29.013 0 52.534-23.997 52.534-53.595v-28.522h27.728c29.012 0 52.534-23.756 52.534-53.354 0-29.599-23.522-53.592-52.534-53.592zm-52.533 135.52c-0.02506 15.6-12.432 28.242-27.727 28.242-15.313 0-27.842-12.666-27.842-28.287 0-15.625 12.529-28.526 27.842-28.526 0.01445 0 0.02693 4e-3 0.03765 4e-3h23.758c0.0076 0 0.01282-4e-3 0.01807-4e-3 2.1622 0 3.9175 1.7851 3.9175 3.991 0 2e-3 -0.0017 5e-3 -0.0017 9e-3v24.571zm52.531-53.521h-23.812c-2.1662 0-3.9158-1.7892-3.9158-3.995v-24.456c0.0268-15.605 12.43-28.242 27.725-28.242 15.316 0 27.847 12.664 27.847 28.29 3e-3 15.621-12.53 28.403-27.845 28.403z"/><path fill="#fff" fill-rule="evenodd" stroke-width="5.828" d="m92.269 109.04v-28.405c0-29.599 23.52-53.592 52.534-53.592 4.4036 0 7.5302 0.50301 11.608 1.5931 5.9392 1.5876 10.793 6.5535 10.795 12.335 1e-3 6.9871-4.9706 12.066-12.4 12.066-3.541 0-4.8197-0.69131-10.005-0.69131-15.295 0-27.699 12.637-27.726 28.242v24.456c0 2.2059 1.7501 3.995 3.9158 3.995h18.218c6.786 0 12.263 5.5383 12.269 12.478 0 6.9445-5.4846 12.472-12.269 12.472h-22.134v28.526c0 29.595-23.521 53.59-52.534 53.59-4.4017 0-7.5302-0.50703-11.606-1.5922-5.9398-1.5869-10.795-6.5564-10.797-12.336 0-6.9865 4.97-12.067 12.402-12.067 3.5374 0 4.8193 0.69236 10.001 0.69236 15.295 0 27.702-12.638 27.729-28.242v-24.578c0-2.2024-1.7552-3.9874-3.9175-3.9874h-0.01084l-18.205-3e-3c-6.786 0-12.271-5.5237-12.271-12.465-0.0035-6.9853 5.5401-12.485 12.4-12.485z"/><path fill="#fff" fill-rule="evenodd" stroke-width="5.828" d="m202.64 209.07v15.477h-3.357v-15.477h-5.6272v-3.1136h14.606v3.1136zm23.407 15.477v-11.941c-0.24635 0.56735-0.55068 1.2299-0.80186 1.8518l-4.9268 10.657-4.8254-10.657c-0.2415-0.62189-0.55062-1.2845-0.79696-1.8064 0.0483 0.67172 0.0483 1.4706 0.0483 2.0832v9.8124h-3.2121v-18.59h3.3667l4.468 9.6219c0.35259 0.80792 0.74871 1.8518 1.0482 2.5508 0.29944-0.75338 0.71002-1.693 1.0529-2.5508l4.3762-9.6219h3.4101v18.59z"/></svg>