<svg width="863.12" height="863.12" version="1.1" viewBox="0 0 228.37 228.37" xmlns="http://www.w3.org/2000/svg"><defs><clipPath id="clipPath888-8"><path d="m0 0h396.85v396.85h-396.85z"/></clipPath><clipPath id="clipPath872-2"><path d="m0 0h396.85v396.85h-396.85z"/></clipPath><clipPath id="clipPath856-4"><path d="m0 0h396.85v396.85h-396.85z"/></clipPath><clipPath id="clipPath840-2"><path d="m0 0h396.85v396.85h-396.85z"/></clipPath></defs><g transform="translate(-19.897 -60.723)"><g transform="matrix(5.8279 0 0 -5.8279 -390.36 1330.8)" fill="#294172"><g clip-path="url(#clipPath840-2)" fill="#294172"><g fill="#294172"><g transform="translate(70.782 217.93)" fill="#294172"><g fill="#294172"><path d="m38.413-19.594c0 10.821-8.599 19.594-19.207 19.594-10.603 0-19.198-8.7652-19.206-19.58l-6.2e-4 7e-4v-15.162l6.2e-4 -6e-4c0.00584-2.4554 1.9578-4.4433 4.3664-4.4433 0.00677 0 0.01354 6e-4 0.02062 6e-4l0.00122-6e-4h14.825c10.604 0.0043 19.199 8.7736 19.199 19.592z" fill="#294172" fill-rule="evenodd"/></g></g></g></g></g><g transform="matrix(5.8279 0 0 -5.8279 -392.61 1330.8)" fill="#3c6eb4"><g clip-path="url(#clipPath856-4)" fill="#3c6eb4"><g fill="#3c6eb4"><g transform="translate(72.841 213.29)" fill="#3c6eb4"><g fill="#3c6eb4"><path d="m22.786 0c-4.9787 0-9.0144-4.117-9.0144-9.1958v-4.874h-4.7577c-4.9789 0-9.0143-4.0968-9.0143-9.1751 0-5.0788 4.0354-9.1962 9.0143-9.1962 4.9783 0 9.0143 4.1176 9.0143 9.1962v4.894h4.7578c4.9781 0 9.0142 4.0762 9.0142 9.155 0 5.0789-4.0361 9.1958-9.0142 9.1958zm-9.0141-23.253c-0.0043-2.6768-2.1332-4.846-4.7577-4.846-2.6276 0-4.7774 2.1733-4.7774 4.8537 0 2.681 2.1498 4.8947 4.7774 4.8947 0.00248 0 0.00462-6e-4 0.00646-6e-4h4.0766c0.0013 0 0.0022 6e-4 0.0031 6e-4 0.371 0 0.6722-0.3063 0.6722-0.6848 0-3e-4 -3e-4 -9e-4 -3e-4 -0.0015v-4.2161zm9.0137 9.1835h-4.0858c-0.3717 0-0.6719 0.307-0.6719 0.6855v4.1963c0.0046 2.6777 2.1329 4.846 4.7573 4.846 2.628 0 4.7782-2.173 4.7782-4.8542 5e-4 -2.6804-2.15-4.8736-4.7778-4.8736z" fill="#3c6eb4" fill-rule="evenodd"/></g></g></g></g></g><g transform="matrix(5.8279 0 0 -5.8279 -392.61 1330.8)"><g clip-path="url(#clipPath872-2)"><g transform="translate(78.012 213.29)"><path d="m8.6017-14.07v4.874c0 5.0789 4.0357 9.1958 9.0143 9.1958 0.7556 0 1.2921-0.08631 1.9918-0.27336 1.0191-0.27241 1.8519-1.1245 1.8523-2.1165 2e-4 -1.1989-0.8529-2.0704-2.1277-2.0704-0.6076 0-0.827 0.11862-1.7167 0.11862-2.6245 0-4.7528-2.1683-4.7574-4.846v-4.1963c0-0.3785 0.3003-0.6855 0.6719-0.6855h3.126c1.1644 0 2.1042-0.9503 2.1052-2.141 0-1.1916-0.9411-2.1401-2.1052-2.1401h-3.7979v-4.8947c0-5.0782-4.036-9.1954-9.0143-9.1954-0.75528 0-1.2921 0.087-1.9914 0.2732-1.0192 0.2723-1.8523 1.125-1.8526 2.1167 0 1.1988 0.85279 2.0706 2.128 2.0706 0.60697 0 0.82693-0.1188 1.716-0.1188 2.6245 0 4.7534 2.1686 4.758 4.846v4.2173c0 0.3779-0.30118 0.6842-0.6722 0.6842h-0.00186l-3.1238 6e-4c-1.1644 0-2.1055 0.9478-2.1055 2.1388-6e-4 1.1986 0.95062 2.1423 2.1277 2.1423z" fill="#fff" fill-rule="evenodd"/></g></g></g><g transform="matrix(5.8279 0 0 -5.8279 -392.61 1330.8)"><g clip-path="url(#clipPath888-8)"><g transform="translate(104.01 182.59)"><path d="m1.5416-0.53425v-2.6556h-0.57602v2.6556h-0.96557v0.53425h2.5063v-0.53425zm4.0164-2.6556v2.049c-0.04227-0.09735-0.09449-0.21104-0.13759-0.31775l-0.84538-1.8286-0.82799 1.8286c-0.04144 0.10671-0.09448 0.2204-0.13675 0.30996 0.00829-0.11526 0.00829-0.25233 0.00829-0.35746v-1.6837h-0.55116v3.1899h0.57768l0.76665-1.651c0.0605-0.13863 0.12847-0.31774 0.17986-0.43768 0.05138 0.12927 0.12183 0.29049 0.18067 0.43768l0.75091 1.651h0.58514v-3.1899z" fill="#fff" fill-rule="evenodd"/></g></g></g></g></svg>