<?xml version="1.0" encoding="UTF-8" standalone="no"?>
<!-- Created with Inkscape (http://www.inkscape.org/) -->

<svg
   xmlns:dc="http://purl.org/dc/elements/1.1/"
   xmlns:cc="http://creativecommons.org/ns#"
   xmlns:rdf="http://www.w3.org/1999/02/22-rdf-syntax-ns#"
   xmlns:svg="http://www.w3.org/2000/svg"
   xmlns="http://www.w3.org/2000/svg"
   xmlns:sodipodi="http://sodipodi.sourceforge.net/DTD/sodipodi-0.dtd"
   xmlns:inkscape="http://www.inkscape.org/namespaces/inkscape"
   width="42.60675mm"
   height="42.60675mm"
   viewBox="0 0 42.606751 42.606751"
   version="1.1"
   id="svg1300"
   inkscape:version="0.92.4 (5da689c313, 2019-01-14)"
   sodipodi:docname="github.svg">
  <defs
     id="defs1294" />
  <sodipodi:namedview
     id="base"
     pagecolor="#ffffff"
     bordercolor="#666666"
     borderopacity="1.0"
     inkscape:pageopacity="0.0"
     inkscape:pageshadow="2"
     inkscape:zoom="0.35"
     inkscape:cx="-1012.9366"
     inkscape:cy="-109.91574"
     inkscape:document-units="mm"
     inkscape:current-layer="layer1"
     showgrid="false"
     fit-margin-top="0"
     fit-margin-left="0"
     fit-margin-right="0"
     fit-margin-bottom="0"
     inkscape:window-width="1920"
     inkscape:window-height="1136"
     inkscape:window-x="0"
     inkscape:window-y="27"
     inkscape:window-maximized="1" />
  <metadata
     id="metadata1297">
    <rdf:RDF>
      <cc:Work
         rdf:about="">
        <dc:format>image/svg+xml</dc:format>
        <dc:type
           rdf:resource="http://purl.org/dc/dcmitype/StillImage" />
        <dc:title></dc:title>
      </cc:Work>
    </rdf:RDF>
  </metadata>
  <g
     inkscape:label="Vrstva 1"
     inkscape:groupmode="layer"
     id="layer1"
     transform="translate(-21.226587,-52.954234)">
    <path
       inkscape:connector-curvature="0"
       id="path26"
       style="fill:#1b1817;fill-opacity:1;fill-rule:evenodd;stroke:none;stroke-width:0.03527778"
       d="m 42.530133,53.480094 c -11.76408,0 -21.303544,9.5377 -21.303544,21.303544 0,9.412464 6.104114,17.397941 14.568663,20.214873 1.064684,0.197202 1.455561,-0.46214 1.455561,-1.024822 0,-0.508 -0.01976,-2.186162 -0.02893,-3.966278 -5.926667,1.288695 -7.177264,-2.513542 -7.177264,-2.513542 -0.96908,-2.46239 -2.365375,-3.117146 -2.365375,-3.117146 -1.932869,-1.32221 0.145698,-1.295046 0.145698,-1.295046 2.139244,0.149929 3.265663,2.195687 3.265663,2.195687 1.900061,3.256492 4.983692,2.31493 6.199364,1.770592 0.191205,-1.376892 0.743303,-2.317043 1.35255,-2.848679 -4.731808,-0.538691 -9.705975,-2.365375 -9.705975,-10.5283 0,-2.325864 0.832203,-4.226278 2.194984,-5.718175 -0.221192,-0.536928 -0.950384,-2.703336 0.206374,-5.637742 0,0 1.788936,-0.572558 5.859992,2.183695 1.69933,-0.472017 3.52178,-0.708731 5.332236,-0.716845 1.810455,0.0081 3.634316,0.244828 5.336823,0.716845 4.066116,-2.756253 5.852583,-2.183695 5.852583,-2.183695 1.159579,2.934406 0.430035,5.100814 0.208844,5.637742 1.365956,1.491897 2.192514,3.392311 2.192514,5.718175 0,8.182327 -4.983691,9.983962 -9.727495,10.511367 0.764117,0.661104 1.444979,1.957562 1.444979,3.945112 0,2.850446 -0.02469,5.144558 -0.02469,5.846233 0,0.566915 0.383471,1.231197 1.463323,1.021999 8.459972,-2.820107 14.556324,-10.802761 14.556324,-20.21205 -1.1e-5,-11.765844 -9.538063,-21.303544 -21.303202,-21.303544" />
  </g>
</svg>
