<svg width="192.05" height="184.99" version="1.1" viewBox="0 0 192.05 184.99" xmlns="http://www.w3.org/2000/svg"><defs><style>.cls-1{fill:#e24329;}.cls-2{fill:#fc6d26;}.cls-3{fill:#fca326;}</style></defs><g transform="translate(-93.973 -97.517)"><path class="cls-1" d="m282.83 170.73-0.27-0.69-26.14-68.22a6.81 6.81 0 0 0-2.69-3.24 7 7 0 0 0-8 0.43 7 7 0 0 0-2.32 3.52l-17.65 54h-71.47l-17.65-54a6.86 6.86 0 0 0-2.32-3.53 7 7 0 0 0-8-0.43 6.87 6.87 0 0 0-2.69 3.24l-26.19 68.19-0.26 0.69a48.54 48.54 0 0 0 16.1 56.1l0.09 0.07 0.24 0.17 39.82 29.82 19.7 14.91 12 9.06a8.07 8.07 0 0 0 9.76 0l12-9.06 19.7-14.91 40.06-30 0.1-0.08a48.56 48.56 0 0 0 16.08-56.04z"/><path class="cls-2" d="m282.83 170.73-0.27-0.69a88.3 88.3 0 0 0-35.15 15.8l-57.41 43.41c19.55 14.79 36.57 27.64 36.57 27.64l40.06-30 0.1-0.08a48.56 48.56 0 0 0 16.1-56.08z"/><path class="cls-3" d="m153.43 256.89 19.7 14.91 12 9.06a8.07 8.07 0 0 0 9.76 0l12-9.06 19.7-14.91s-17.04-12.89-36.59-27.64c-19.55 14.75-36.57 27.64-36.57 27.64z"/><path class="cls-2" d="m132.58 185.84a88.19 88.19 0 0 0-35.14-15.84l-0.26 0.69a48.54 48.54 0 0 0 16.1 56.1l0.09 0.07 0.24 0.17 39.82 29.82s17-12.85 36.57-27.64z"/></g></svg>