<svg width="337.58" height="337.58" data-name="logo art" version="1.1" viewBox="0 0 337.58 337.58" xmlns="http://www.w3.org/2000/svg"><defs><style>.cls-1{fill:#fc6d26}.cls-2{fill:#e24329}.cls-3{fill:#fca326}</style></defs><g transform="translate(-10 -25.715)"><g transform="translate(-114.21 -85)"><path class="cls-1" d="m461.17 301.83-18.91-58.12-37.42-115.28a6.47 6.47 0 0 0-12.27 0l-37.42 115.21h-124.33l-37.42-115.21a6.46 6.46 0 0 0-12.26 0l-37.36 115.21-18.91 58.19a12.88 12.88 0 0 0 4.66 14.39l163.47 118.78 163.44-118.78a12.9 12.9 0 0 0 4.73-14.39" fill="#fc6d26"/></g><g transform="translate(-114.21 -85)"><path class="cls-2" d="m293 434.91 62.16-191.28h-124.29z" fill="#e24329"/></g><g transform="translate(-114.21 -85)"><path class="cls-1" d="m293 434.91-62.18-191.28h-87z" fill="#fc6d26"/></g><g transform="translate(-114.21 -85)"><path class="cls-3" d="m143.75 243.69-18.91 58.12a12.88 12.88 0 0 0 4.66 14.39l163.5 118.8z" fill="#fca326"/></g><g transform="translate(-114.21 -85)"><path class="cls-2" d="m143.78 243.69h87.11l-37.49-115.2a6.47 6.47 0 0 0-12.27 0z" fill="#e24329"/></g><g transform="translate(-114.21 -85)"><path class="cls-1" d="m293 434.91 62.16-191.28h87.14z" fill="#fc6d26"/></g><g transform="translate(-114.21 -85)"><path class="cls-3" d="m442.24 243.69 18.91 58.12a12.85 12.85 0 0 1-4.66 14.39l-163.49 118.71 149.2-191.22z" fill="#fca326"/></g><g transform="translate(-114.21 -85)"><path class="cls-2" d="m442.28 243.69h-87.1l37.42-115.2a6.46 6.46 0 0 1 12.26 0z" fill="#e24329"/></g></g></svg>