<svg xmlns="http://www.w3.org/2000/svg" xmlns:svg="http://www.w3.org/2000/svg" id="logo_art" width="337.578" height="337.578" data-name="logo art" version="1.1" viewBox="0 0 337.578 337.578"><metadata id="metadata27"/><defs id="defs4"><style id="style2">.cls-1{fill:#fc6d26}.cls-2{fill:#e24329}.cls-3{fill:#fca326}</style></defs><title id="title6">gitlab-icon-rgb</title><g id="g853" transform="translate(-9.9999947,-25.715189)"><g id="g44" transform="translate(-114.20869,-85.000009)"><path id="path46" fill="#fc6d26" d="M 461.17,301.83 442.26,243.71 404.84,128.43 a 6.47,6.47 0 0 0 -12.27,0 L 355.15,243.64 H 230.82 L 193.4,128.43 a 6.46,6.46 0 0 0 -12.26,0 l -37.36,115.21 -18.91,58.19 a 12.88,12.88 0 0 0 4.66,14.39 L 293,435 456.44,316.22 a 12.9,12.9 0 0 0 4.73,-14.39" class="cls-1"/></g><g id="g48" transform="translate(-114.20869,-85.000009)"><path id="path50" fill="#e24329" d="m 293,434.91 v 0 L 355.16,243.63 H 230.87 Z" class="cls-2"/></g><g id="g56" transform="translate(-114.20869,-85.000009)"><path id="path58" fill="#fc6d26" d="M 293,434.91 230.82,243.63 h -87 z" class="cls-1"/></g><g id="g64" transform="translate(-114.20869,-85.000009)"><path id="path66" fill="#fca326" d="m 143.75,243.69 v 0 l -18.91,58.12 a 12.88,12.88 0 0 0 4.66,14.39 L 293,435 Z" class="cls-3"/></g><g id="g72" transform="translate(-114.20869,-85.000009)"><path id="path74" fill="#e24329" d="m 143.78,243.69 h 87.11 L 193.4,128.49 a 6.47,6.47 0 0 0 -12.27,0 z" class="cls-2"/></g><g id="g76" transform="translate(-114.20869,-85.000009)"><path id="path78" fill="#fc6d26" d="M 293,434.91 355.16,243.63 H 442.3 Z" class="cls-1"/></g><g id="g80" transform="translate(-114.20869,-85.000009)"><path id="path82" fill="#fca326" d="m 442.24,243.69 v 0 l 18.91,58.12 a 12.85,12.85 0 0 1 -4.66,14.39 L 293,434.91 442.2,243.69 Z" class="cls-3"/></g><g id="g84" transform="translate(-114.20869,-85.000009)"><path id="path86" fill="#e24329" d="m 442.28,243.69 h -87.1 l 37.42,-115.2 a 6.46,6.46 0 0 1 12.26,0 z" class="cls-2"/></g></g></svg>