<?xml version="1.0" encoding="UTF-8" standalone="no"?>
<svg
   xmlns:dc="http://purl.org/dc/elements/1.1/"
   xmlns:cc="http://creativecommons.org/ns#"
   xmlns:rdf="http://www.w3.org/1999/02/22-rdf-syntax-ns#"
   xmlns:svg="http://www.w3.org/2000/svg"
   xmlns="http://www.w3.org/2000/svg"
   xmlns:xlink="http://www.w3.org/1999/xlink"
   xmlns:sodipodi="http://sodipodi.sourceforge.net/DTD/sodipodi-0.dtd"
   xmlns:inkscape="http://www.inkscape.org/namespaces/inkscape"
   width="18"
   height="18"
   version="1.1"
   viewBox="0 0 18 18"
   id="svg52"
   sodipodi:docname="google.svg"
   inkscape:version="0.92.4 (5da689c313, 2019-01-14)">
  <metadata
     id="metadata56">
    <rdf:RDF>
      <cc:Work
         rdf:about="">
        <dc:format>image/svg+xml</dc:format>
        <dc:type
           rdf:resource="http://purl.org/dc/dcmitype/StillImage" />
        <dc:title>btn_google_light_normal_ios</dc:title>
      </cc:Work>
    </rdf:RDF>
  </metadata>
  <sodipodi:namedview
     pagecolor="#ffffff"
     bordercolor="#666666"
     borderopacity="1"
     objecttolerance="10"
     gridtolerance="10"
     guidetolerance="10"
     inkscape:pageopacity="0"
     inkscape:pageshadow="2"
     inkscape:window-width="1920"
     inkscape:window-height="1136"
     id="namedview54"
     showgrid="false"
     fit-margin-top="0"
     fit-margin-left="0"
     fit-margin-right="0"
     fit-margin-bottom="0"
     inkscape:zoom="5.1304348"
     inkscape:cx="-11.076271"
     inkscape:cy="9"
     inkscape:window-x="0"
     inkscape:window-y="27"
     inkscape:window-maximized="1"
     inkscape:current-layer="svg52" />
  <title
     id="title2">btn_google_light_normal_ios</title>
  <desc
     id="desc4">Created with Sketch.</desc>
  <defs
     id="defs28">
    <filter
       id="filter-1"
       width="2"
       height="2"
       x="-0.5"
       y="-0.5"
       filterUnits="objectBoundingBox">
      <feOffset
         dx="0"
         dy="1"
         in="SourceAlpha"
         result="shadowOffsetOuter1"
         id="feOffset6" />
      <feGaussianBlur
         in="shadowOffsetOuter1"
         result="shadowBlurOuter1"
         stdDeviation=".5"
         id="feGaussianBlur8" />
      <feColorMatrix
         in="shadowBlurOuter1"
         result="shadowMatrixOuter1"
         type="matrix"
         values="0 0 0 0 0 0 0 0 0 0 0 0 0 0 0 0 0 0 0.168 0"
         id="feColorMatrix10" />
      <feOffset
         dx="0"
         dy="0"
         in="SourceAlpha"
         result="shadowOffsetOuter2"
         id="feOffset12" />
      <feGaussianBlur
         in="shadowOffsetOuter2"
         result="shadowBlurOuter2"
         stdDeviation=".5"
         id="feGaussianBlur14" />
      <feColorMatrix
         in="shadowBlurOuter2"
         result="shadowMatrixOuter2"
         type="matrix"
         values="0 0 0 0 0 0 0 0 0 0 0 0 0 0 0 0 0 0 0.084 0"
         id="feColorMatrix16" />
      <feMerge
         id="feMerge24">
        <feMergeNode
           in="shadowMatrixOuter1"
           id="feMergeNode18" />
        <feMergeNode
           in="shadowMatrixOuter2"
           id="feMergeNode20" />
        <feMergeNode
           in="SourceGraphic"
           id="feMergeNode22" />
      </feMerge>
    </filter>
    <rect
       id="path-2"
       width="40"
       height="40"
       x="0"
       y="0"
       rx="2" />
  </defs>
  <use
     xlink:href="#path-2"
     id="use32"
     style="fill:none;fill-rule:evenodd;stroke:none;stroke-width:1;filter:url(#filter-1)"
     x="0"
     y="0"
     width="100%"
     height="100%"
     transform="translate(-11,-11)" />
  <use
     xlink:href="#path-2"
     id="use34"
     style="fill:none;fill-rule:evenodd;stroke:none;stroke-width:1;filter:url(#filter-1)"
     x="0"
     y="0"
     width="100%"
     height="100%"
     transform="translate(-11,-11)" />
  <use
     xlink:href="#path-2"
     id="use36"
     style="fill:none;fill-rule:evenodd;stroke:none;stroke-width:1;filter:url(#filter-1)"
     x="0"
     y="0"
     width="100%"
     height="100%"
     transform="translate(-11,-11)" />
  <g
     id="g909"
     transform="translate(-13.82,-14)">
    <path
       id="Shape"
       d="m 31.64,23.204546 c 0,-0.638182 -0.05727,-1.251819 -0.163636,-1.84091 H 23 V 24.845 h 4.843636 C 27.635,25.97 27.000909,26.923182 26.047727,27.561364 v 2.258182 h 2.908637 C 30.658182,28.252727 31.64,25.945455 31.64,23.204546 Z"
       inkscape:connector-curvature="0"
       style="fill:#4285f4;fill-rule:evenodd;stroke:none;stroke-width:1" />
    <path
       id="path41"
       d="m 23,32 c 2.43,0 4.467273,-0.805909 5.956364,-2.180454 l -2.908637,-2.258182 c -0.805909,0.54 -1.836818,0.859091 -3.047727,0.859091 -2.344091,0 -4.328182,-1.583182 -5.035909,-3.710455 h -3.006818 v 2.331818 C 16.438182,29.983182 19.481818,32 23,32 Z"
       inkscape:connector-curvature="0"
       style="fill:#34a853;fill-rule:evenodd;stroke:none;stroke-width:1" />
    <path
       id="path43"
       d="m 17.964091,24.71 c -0.18,-0.54 -0.282273,-1.116818 -0.282273,-1.71 0,-0.593182 0.102273,-1.17 0.282273,-1.71 V 18.958182 H 14.957273 C 14.347727,20.173182 14,21.547727 14,23 c 0,1.452273 0.347727,2.826818 0.957273,4.041818 z"
       inkscape:connector-curvature="0"
       style="fill:#fbbc05;fill-rule:evenodd;stroke:none;stroke-width:1" />
    <path
       id="path45"
       d="m 23,17.579546 c 1.321364,0 2.507727,0.45409 3.440455,1.345909 l 2.581363,-2.581364 C 27.463182,14.891818 25.425909,14 23,14 c -3.518182,0 -6.561818,2.016818 -8.042727,4.958182 L 17.964091,21.29 C 18.671818,19.162727 20.655909,17.579546 23,17.579546 Z"
       inkscape:connector-curvature="0"
       style="fill:#ea4335;fill-rule:evenodd;stroke:none;stroke-width:1" />
  </g>
  <path
     style="fill:none;fill-rule:evenodd;stroke:none;stroke-width:1"
     inkscape:connector-curvature="0"
     d="M 0,0 H 18 V 18 H 0 Z"
     id="path47" />
</svg>
