<svg xmlns="http://www.w3.org/2000/svg" xmlns:svg="http://www.w3.org/2000/svg" xmlns:xlink="http://www.w3.org/1999/xlink" id="svg52" width="18" height="18" version="1.1" viewBox="0 0 18 18"><metadata id="metadata56"/><title id="title2">btn_google_light_normal_ios</title><desc id="desc4">Created with Sketch.</desc><defs id="defs28"><filter id="filter-1" width="2" height="2" x="-.5" y="-.5" filterUnits="objectBoundingBox"><feOffset id="feOffset6" dx="0" dy="1" in="SourceAlpha" result="shadowOffsetOuter1"/><feGaussianBlur id="feGaussianBlur8" in="shadowOffsetOuter1" result="shadowBlurOuter1" stdDeviation=".5"/><feColorMatrix id="feColorMatrix10" in="shadowBlurOuter1" result="shadowMatrixOuter1" type="matrix" values="0 0 0 0 0 0 0 0 0 0 0 0 0 0 0 0 0 0 0.168 0"/><feOffset id="feOffset12" dx="0" dy="0" in="SourceAlpha" result="shadowOffsetOuter2"/><feGaussianBlur id="feGaussianBlur14" in="shadowOffsetOuter2" result="shadowBlurOuter2" stdDeviation=".5"/><feColorMatrix id="feColorMatrix16" in="shadowBlurOuter2" result="shadowMatrixOuter2" type="matrix" values="0 0 0 0 0 0 0 0 0 0 0 0 0 0 0 0 0 0 0.084 0"/><feMerge id="feMerge24"><feMergeNode id="feMergeNode18" in="shadowMatrixOuter1"/><feMergeNode id="feMergeNode20" in="shadowMatrixOuter2"/><feMergeNode id="feMergeNode22" in="SourceGraphic"/></feMerge></filter><rect id="path-2" width="40" height="40" x="0" y="0" rx="2"/></defs><use id="use32" width="100%" height="100%" x="0" y="0" fill="none" fill-rule="evenodd" stroke="none" stroke-width="1" filter="url(#filter-1)" transform="translate(-11,-11)" xlink:href="#path-2"/><use id="use34" width="100%" height="100%" x="0" y="0" fill="none" fill-rule="evenodd" stroke="none" stroke-width="1" filter="url(#filter-1)" transform="translate(-11,-11)" xlink:href="#path-2"/><use id="use36" width="100%" height="100%" x="0" y="0" fill="none" fill-rule="evenodd" stroke="none" stroke-width="1" filter="url(#filter-1)" transform="translate(-11,-11)" xlink:href="#path-2"/><g id="g909" transform="translate(-13.82,-14)"><path id="Shape" fill="#4285f4" fill-rule="evenodd" stroke="none" stroke-width="1" d="m 31.64,23.204546 c 0,-0.638182 -0.05727,-1.251819 -0.163636,-1.84091 H 23 V 24.845 h 4.843636 C 27.635,25.97 27.000909,26.923182 26.047727,27.561364 v 2.258182 h 2.908637 C 30.658182,28.252727 31.64,25.945455 31.64,23.204546 Z"/><path id="path41" fill="#34a853" fill-rule="evenodd" stroke="none" stroke-width="1" d="m 23,32 c 2.43,0 4.467273,-0.805909 5.956364,-2.180454 l -2.908637,-2.258182 c -0.805909,0.54 -1.836818,0.859091 -3.047727,0.859091 -2.344091,0 -4.328182,-1.583182 -5.035909,-3.710455 h -3.006818 v 2.331818 C 16.438182,29.983182 19.481818,32 23,32 Z"/><path id="path43" fill="#fbbc05" fill-rule="evenodd" stroke="none" stroke-width="1" d="m 17.964091,24.71 c -0.18,-0.54 -0.282273,-1.116818 -0.282273,-1.71 0,-0.593182 0.102273,-1.17 0.282273,-1.71 V 18.958182 H 14.957273 C 14.347727,20.173182 14,21.547727 14,23 c 0,1.452273 0.347727,2.826818 0.957273,4.041818 z"/><path id="path45" fill="#ea4335" fill-rule="evenodd" stroke="none" stroke-width="1" d="m 23,17.579546 c 1.321364,0 2.507727,0.45409 3.440455,1.345909 l 2.581363,-2.581364 C 27.463182,14.891818 25.425909,14 23,14 c -3.518182,0 -6.561818,2.016818 -8.042727,4.958182 L 17.964091,21.29 C 18.671818,19.162727 20.655909,17.579546 23,17.579546 Z"/></g><path id="path47" fill="none" fill-rule="evenodd" stroke="none" stroke-width="1" d="M 0,0 H 18 V 18 H 0 Z"/></svg>