<svg viewBox="0 0 243.41 275.99" xmlns="http://www.w3.org/2000/svg"><defs><style>.cls-1{fill:#eb753a;}.cls-2{fill:#bb4890;}.cls-3{opacity:0.07;}.cls-4{fill:#010101;}.cls-5{fill:#9e366e;}.cls-6{fill:#fefbdc;}.cls-7{fill:#d4572b;}</style></defs><g data-name="Layer 2"><g data-name="Layer 1"><polygon class="cls-1" points="126.49 0 126.49 275.99 243.41 208.91 243.41 67.08"/><polygon class="cls-2" points="116.91 0 0 67.08 0 208.91 116.91 275.99 116.91 114.99 114.99 113.08 114.99 103.5 116.91 101.58 116.91 78.58 114.99 78.58 114.99 38.33 116.91 36.41"/><g class="cls-3"><path class="cls-4" d="M116.87,101.66,65.12,132.33V110l51.75-31.07V35.63L54.54,72.56h-.12a5.31,5.31,0,0,0-.5.38l-.4.33q-.19.2-.36.42a3.67,3.67,0,0,0-.34.42,4.83,4.83,0,0,0-.29.48,5.37,5.37,0,0,0-.25.48,2.27,2.27,0,0,1-.19.54,5.29,5.29,0,0,0-.15.52,4.91,4.91,0,0,0,0,.52,5.75,5.75,0,0,0,0,.61v97.15a21.08,21.08,0,0,0-15.3,3.83C27.36,184.41,24.22,196,29,203.16s15.7,7.47,24.92,1.3c5.29-3.53,10.31-7.8,11.5-12.8a20.34,20.34,0,0,0,0-3.83V145.66l51.75-31Z"/></g><path class="cls-5" d="M116.91,107.33,65.16,138V115l51.75-30.67V40.25L54.64,78h-.12a5.31,5.31,0,0,0-.5.38l-.4.33a5.52,5.52,0,0,0-.36.42,3.67,3.67,0,0,0-.34.42,4.85,4.85,0,0,0-.29.48c0,.15-.19.31-.25.48s-.13.34-.19.54a5.33,5.33,0,0,0-.15.52,4.93,4.93,0,0,0,0,.52,5.75,5.75,0,0,0,0,.61v97.15a21.08,21.08,0,0,0-15.4,3.83c-9.28,6.17-12.42,17.79-7.67,24.92s15.7,7.47,24.92,1.3c5.29-3.53,10.31-7.8,11.5-12.8a20.34,20.34,0,0,0,0-3.83V151.43l51.77-30.7Z"/><path class="cls-6" d="M116.91,101.58,65.16,132.25v-23l51.75-30.67V34.5L54.54,72.56h-.12a5.31,5.31,0,0,0-.5.38l-.4.33q-.19.2-.36.42a3.67,3.67,0,0,0-.34.42,4.83,4.83,0,0,0-.29.48,5.37,5.37,0,0,0-.25.48,2.27,2.27,0,0,1-.19.54,5.29,5.29,0,0,0-.15.52,4.91,4.91,0,0,0,0,.52,5.75,5.75,0,0,0,0,.61v97.15a21.08,21.08,0,0,0-15.3,3.83C27.36,184.41,24.22,196,29,203.16s15.7,7.47,24.92,1.3c5.29-3.53,10.31-7.8,11.5-12.8a20.34,20.34,0,0,0,0-3.83V145.66L117.14,115Z"/><g class="cls-3"><path class="cls-4" d="m159.64 175.83a4 4 0 1 1-0.44 3.07 4 4 0 0 1 0.44-3.07zm24.18 42.9a4 4 0 1 1-2.64-7.13 4.06 4.06 0 0 1 4.06 4.06v0.3a4 4 0 0 1-1.42 2.77z"/><path class="cls-4" d="m143.76 87.41"/><path class="cls-4" d="m165.55 105.91a4 4 0 1 1 0 4.24 4 4 0 0 1 0-4.24zm12.23-38.7a4.1 4.1 0 0 1-5.58 1.25l-0.19-0.12a4.05 4.05 0 1 1 5.77-1.13z"/><path class="cls-4" d="m209.92 89.45a4 4 0 0 1 6.84 4.33 4.1 4.1 0 0 1-5.58 1.22l-0.17-0.12a4 4 0 0 1-1.09-5.43zm0 45a4 4 0 0 1 6.84 4.33 4.1 4.1 0 0 1-5.58 1.25l-0.17-0.11a4 4 0 0 1-1.09-5.37zm0 50.41a4 4 0 1 1 6.84 4.33 4.1 4.1 0 0 1-5.58 1.25l-0.17-0.11a4 4 0 0 1-1.09-5.44z"/><path class="cls-4" d="m190.09 203.37a11.73 11.73 0 0 0-20.55 9.08 38.06 38.06 0 0 1-10.22 2.55 7.67 7.67 0 0 1-4.25-1.92 20.53 20.53 0 0 0-8-3.55 72.14 72.14 0 0 0 16.46-24.53 11.7 11.7 0 1 0-7.4-2.26c-7.76 17.67-17.67 25.07-24.09 28.14a3.83 3.83 0 0 0-0.69 0.33 21.58 21.58 0 0 1-4.91 1.55v7.67a24.13 24.13 0 0 0 8.2-2.28c10.25-2.61 13.11-0.67 16.12 1.36a15.1 15.1 0 0 0 8.16 3.18h0.59a45.25 45.25 0 0 0 13.42-3.3 11.75 11.75 0 0 0 8.26 3.3 11.73 11.73 0 0 0 8.89-19.36zm-30.45-32.16a4 4 0 1 1-0.44 3.07 4 4 0 0 1 0.44-3.07zm24.15 42.86a4 4 0 1 1-2.64-7.13 4.06 4.06 0 0 1 4.06 4.06v0.3a4 4 0 0 1-1.39 2.76z"/><path class="cls-4" d="m143.76 82.73"/><path class="cls-4" d="m185.81 57.84a11.73 11.73 0 1 0-21.08 9.24 25.59 25.59 0 0 1-19.09 8.22 55.87 55.87 0 0 0-19.17-4.45v7.67a47.53 47.53 0 0 1 16.79 4.21 41.38 41.38 0 0 1 16.5 13.42 12.12 12.12 0 0 0-0.73 1 11.73 11.73 0 1 0 16.2-3.66 11.92 11.92 0 0 0-9-1.44 49.83 49.83 0 0 0-10.23-10.68 31.34 31.34 0 0 0 14.91-9.77 11.74 11.74 0 0 0 14.89-13.76zm-20.26 43.45a4 4 0 1 1 0 4.24 4 4 0 0 1 0-4.24zm12.23-38.7a4.1 4.1 0 0 1-5.58 1.25l-0.19-0.12a4.06 4.06 0 1 1 5.77-1.16z"/><path class="cls-4" d="M202.49,136.42a11.5,11.5,0,0,0,4,5.08l.54.36a11.73,11.73,0,1,0,6.27-21.64h-.66a49.31,49.31,0,0,1,0-21.58h.65a11.73,11.73,0,1,0-8-3.12l.13.12a54.91,54.91,0,0,0,0,27.64c-.27.25-.56.48-.82.77a12,12,0,0,0-1.21,1.57,11.81,11.81,0,0,0-1.36,3,29.13,29.13,0,0,0-13,5.33c-3.83,2.53-7.67,4.93-18.48,5.12a62.56,62.56,0,0,0-10.27-.23,92.48,92.48,0,0,1-9.3,0c-2.55-.13-4-1.69-6.63-4.64-3.45-3.93-8.09-8.91-18-9.58v7.67c6.31.57,9.2,3.62,12.19,7s6.08,6.94,12,7.24c4.06.21,7.21.1,10,0a46.42,46.42,0,0,1,15,1.34c5,1.23,23.19,18.53,28.31,27.45a8.14,8.14,0,0,0-.59.82,11.69,11.69,0,0,0,3.1,15.81l.54.36A11.73,11.73,0,1,0,210.22,171c-4.91-8-16.58-20-25.28-26.43a34.84,34.84,0,0,0,8.07-4.2A21.68,21.68,0,0,1,202.49,136.42Zm7.44-51.6a4,4,0,0,1,6.84,4.33,4.1,4.1,0,0,1-5.58,1.25l-.17-.12a4,4,0,0,1-1.09-5.44Zm0,45a4,4,0,0,1,6.84,4.33h0a4.1,4.1,0,0,1-5.58,1.25l-.17-.11a4,4,0,0,1-1.09-5.44Zm0,50.41a4,4,0,0,1,6.84,4.33h0a4.1,4.1,0,0,1-5.58,1.25l-.17-.11a4,4,0,0,1-1.09-5.44Z"/></g><path class="cls-7" d="M190.09,209.12a11.73,11.73,0,0,0-20.55,9.08,38.06,38.06,0,0,1-10.22,2.53,7.67,7.67,0,0,1-4.25-1.92,20.53,20.53,0,0,0-8-3.55,72.14,72.14,0,0,0,16.49-24.53,11.7,11.7,0,1,0-7.4-2.26c-7.76,17.67-17.67,25.07-24.09,28.14a3.83,3.83,0,0,0-.69.33,21.58,21.58,0,0,1-4.91,1.55v7.67a24.13,24.13,0,0,0,8.15-2.28c10.25-2.61,13.11-.67,16.12,1.36a15.1,15.1,0,0,0,8.18,3.22h.59a45.25,45.25,0,0,0,13.42-3.3,11.75,11.75,0,0,0,8.26,3.3h0a11.73,11.73,0,0,0,8.89-19.36ZM159.64,177a4,4,0,1,1-.44,3.07A4,4,0,0,1,159.64,177Zm24.15,42.86a4,4,0,1,1-2.64-7.13,4.06,4.06,0,0,1,4.06,4.06h0v.3a4,4,0,0,1-1.39,2.76Z"/><path class="cls-7" d="m185.81 63.59a11.73 11.73 0 1 0-21.08 9.24 25.59 25.59 0 0 1-19.09 8.22 55.87 55.87 0 0 0-19.17-4.45v7.67a47.55 47.55 0 0 1 16.75 4.24 41.38 41.38 0 0 1 16.5 13.42 12.12 12.12 0 0 0-0.73 1 11.73 11.73 0 1 0 16.2-3.66 11.92 11.92 0 0 0-9-1.44 49.83 49.83 0 0 0-10.19-10.68 31.34 31.34 0 0 0 14.91-9.77 11.74 11.74 0 0 0 14.89-13.76zm-20.26 43.47a4 4 0 1 1 0 4.24 4 4 0 0 1 0-4.24zm12.23-38.7a4.1 4.1 0 0 1-5.58 1.25l-0.19-0.12a4.05 4.05 0 1 1 5.77-1.13z"/><path class="cls-7" d="M202.49,142.17a11.5,11.5,0,0,0,4,5.08l.54.36A11.73,11.73,0,1,0,213.3,126h-.66a49.31,49.31,0,0,1,0-21.58h.65a11.73,11.73,0,1,0-8-3.12l.13.12a54.91,54.91,0,0,0,0,27.64c-.27.25-.56.48-.82.77a12,12,0,0,0-1.21,1.57,11.81,11.81,0,0,0-1.36,3,29.13,29.13,0,0,0-13,5.33c-3.83,2.53-7.67,4.93-18.48,5.12a62.56,62.56,0,0,0-10.27-.23,92.48,92.48,0,0,1-9.3,0c-2.55-.13-4-1.69-6.63-4.64-3.45-3.93-8.09-8.91-18-9.58V138c6.31.57,9.2,3.62,12.19,7s6.08,6.94,12,7.24c4.06.21,7.21.1,10,0a46.42,46.42,0,0,1,15,1.34c5,1.23,23.19,18.53,28.31,27.45a8.14,8.14,0,0,0-.59.82,11.69,11.69,0,0,0,3.1,15.81l.54.36a11.73,11.73,0,1,0,3.32-21.26c-4.91-8-16.58-20-25.28-26.43a34.84,34.84,0,0,0,8.07-4.2A21.68,21.68,0,0,1,202.49,142.17Zm7.44-51.6a4,4,0,0,1,6.84,4.33h0a4.1,4.1,0,0,1-5.58,1.25L211,96a4,4,0,0,1-1.09-5.44Zm0,45a4,4,0,0,1,6.84,4.33h0a4.1,4.1,0,0,1-5.58,1.25L211,141a4,4,0,0,1-1.09-5.44Zm0,50.41a4,4,0,0,1,6.84,4.33h0a4.1,4.1,0,0,1-5.58,1.25l-.17-.11a4,4,0,0,1-1.09-5.44Z"/><path class="cls-6" d="m190.09 203.37a11.73 11.73 0 0 0-20.55 9.08 38.06 38.06 0 0 1-10.22 2.55 7.67 7.67 0 0 1-4.25-1.92 20.53 20.53 0 0 0-8-3.55 72.14 72.14 0 0 0 16.46-24.53 11.7 11.7 0 1 0-7.4-2.26c-7.76 17.67-17.67 25.07-24.09 28.14a3.83 3.83 0 0 0-0.69 0.33 21.58 21.58 0 0 1-4.91 1.55v7.67a24.13 24.13 0 0 0 8.2-2.28c10.25-2.61 13.11-0.67 16.12 1.36a15.1 15.1 0 0 0 8.16 3.18h0.59a45.25 45.25 0 0 0 13.42-3.3 11.75 11.75 0 0 0 8.26 3.3 11.73 11.73 0 0 0 8.89-19.36zm-30.45-32.16a4 4 0 1 1-0.44 3.07 4 4 0 0 1 0.44-3.07zm24.15 42.86a4 4 0 1 1-2.64-7.13 4.06 4.06 0 0 1 4.06 4.06v0.3a4 4 0 0 1-1.39 2.76z"/><path class="cls-6" d="m185.81 57.84a11.73 11.73 0 1 0-21.08 9.24 25.59 25.59 0 0 1-19.09 8.22 55.87 55.87 0 0 0-19.17-4.45v7.67a47.53 47.53 0 0 1 16.79 4.21 41.38 41.38 0 0 1 16.5 13.42 12.12 12.12 0 0 0-0.73 1 11.73 11.73 0 1 0 16.2-3.66 11.92 11.92 0 0 0-9-1.44 49.83 49.83 0 0 0-10.23-10.68 31.34 31.34 0 0 0 14.91-9.77 11.74 11.74 0 0 0 14.89-13.76zm-20.26 43.45a4 4 0 1 1 0 4.24 4 4 0 0 1 0-4.24zm12.23-38.7a4.1 4.1 0 0 1-5.58 1.25l-0.19-0.12a4.06 4.06 0 1 1 5.77-1.16z"/><path class="cls-6" d="M202.49,136.42a11.5,11.5,0,0,0,4,5.08l.54.36a11.73,11.73,0,1,0,6.27-21.64h-.66a49.31,49.31,0,0,1,0-21.58h.65a11.73,11.73,0,1,0-8-3.12l.13.12a54.91,54.91,0,0,0,0,27.64c-.27.25-.56.48-.82.77a12,12,0,0,0-1.21,1.57,11.81,11.81,0,0,0-1.36,3,29.13,29.13,0,0,0-13,5.33c-3.83,2.53-7.67,4.93-18.48,5.12a62.56,62.56,0,0,0-10.27-.23,92.48,92.48,0,0,1-9.3,0c-2.55-.13-4-1.69-6.63-4.64-3.45-3.93-8.09-8.91-18-9.58v7.67c6.31.57,9.2,3.62,12.19,7s6.08,6.94,12,7.24c4.06.21,7.21.1,10,0a46.42,46.42,0,0,1,15,1.34c5,1.23,23.19,18.53,28.31,27.45a8.14,8.14,0,0,0-.59.82,11.69,11.69,0,0,0,3.1,15.81l.54.36A11.73,11.73,0,1,0,210.22,171c-4.91-8-16.58-20-25.28-26.43a34.84,34.84,0,0,0,8.07-4.2A21.68,21.68,0,0,1,202.49,136.42Zm7.44-51.6a4,4,0,0,1,6.84,4.33,4.1,4.1,0,0,1-5.58,1.25l-.17-.12a4,4,0,0,1-1.09-5.44Zm0,45a4,4,0,0,1,6.84,4.33h0a4.1,4.1,0,0,1-5.58,1.25l-.17-.11a4,4,0,0,1-1.09-5.44Zm0,50.41a4,4,0,0,1,6.84,4.33h0a4.1,4.1,0,0,1-5.58,1.25l-.17-.11a4,4,0,0,1-1.09-5.44Z"/></g></g></svg>