<svg width="224" height="224" version="1.1" viewBox="0 0 224 224" xmlns="http://www.w3.org/2000/svg"><circle cx="112" cy="112" r="98" fill="#fff" stroke-linecap="round" stroke-linejoin="round" stroke-width="1.962"/><path d="m112 0a112 112 0 0 0-112 112 112 112 0 0 0 112 112 112 112 0 0 0 112-112 112 112 0 0 0-112-112zm0 14a97.999 98 0 0 1 98 98 97.999 98 0 0 1-98 98 97.999 98 0 0 1-73.763-33.665c7.0611-5.1071 18.64-3.8028 32.872-2.196 6.935 0.81013 14.833 1.7167 23.008 1.8987 22.824 0.14504 47.407-4.0701 62.559-10.698 9.8027-4.2605 16.058-7.0965 19.978-10.661 1.4097-1.1681 2.1419-3.0641 2.9036-5.1047l0.53491-1.3484c0.63379-1.6541 1.5645-5.1396 1.9739-7.0496 0.16481-0.8414 0.35765-1.6652-0.33838-2.2029-0.6363-0.49168-2.0986 0.38964-2.0986 0.38964-6.6537 4.0048-23.286 11.589-38.837 11.913-19.307 0.38942-58.426-19.544-62.479-21.649-2.7126-6.4591-5.4241-12.922-8.1758-19.364 27.987 18.44 51.202 28.634 68.971 30.206 19.782 1.7622 35.201-9.0328 41.894-13.523 0.87612-0.58244 1.7516-1.2342 2.5549-1.8611h4e-3c0.14375-0.11214 0.47936-0.40775 0.43579-0.68017-1.1096-6.9339-11.44-40.558-19.259-48.645-2.1544-2.2027-3.8795-4.3754-7.3726-6.4189-28.286-16.483-95.39-26.43-98.534-26.886 0 0-0.31618-0.06492-0.53491 0.14868-0.16984 0.16595-0.20337 0.48535-0.20337 0.48535s-0.25766 13.903-0.29736 15.458c-2.5338-0.85129-10.995-3.5946-22.948-6.7881a97.999 98 0 0 1 77.15-37.758zm20.426 56.851c0.4763-0.0079 0.95442-0.0035 1.4338 0.01199 15.817 0.56558 28.247 13.918 27.704 29.718-0.29835 7.6656-3.5062 14.78-9.0969 19.981-5.6076 5.2667-12.907 7.9747-20.612 7.7161-15.8-0.5826-28.215-13.907-27.686-29.721 0.28408-7.6656 3.4919-14.779 9.0969-19.997 5.2571-4.9082 12.015-7.5942 19.159-7.7092zm0.1897 8.4578c-4.9947 0.0623-9.6936 1.9407-13.339 5.3594-3.8882 3.6466-6.18 8.5876-6.342 13.937-0.37225 11.054 8.2816 20.351 19.31 20.757 5.3632 0.16206 10.475-1.735 14.386-5.3816 3.9052-3.6636 6.1526-8.6024 6.3232-13.932 0.37225-11.051-8.2816-20.338-19.335-20.73-0.33538-0.01207-0.6702-0.01444-1.0032-0.01024zm4.2793 10.061c4.9113 0 8.8901 2.6434 8.8901 5.9319 0 3.2572-3.9816 5.9148-8.8901 5.9148-4.9114 0-8.8782-2.6575-8.8782-5.9148 0-3.2885 3.9668-5.9319 8.8782-5.9319z" fill="#73ba25" stroke-width="13.845"/><circle cx="771.51" cy="-1094.8" r="0" fill="#fff" opacity=".3" stroke-width="3.088"/></svg>