<svg xmlns="http://www.w3.org/2000/svg" xmlns:xlink="http://www.w3.org/1999/xlink" contentStyleType="text/css" height="636px" preserveAspectRatio="none" style="width:1638px;height:636px;background:#FFFFFF;" version="1.1" viewBox="0 0 1638 636" width="1638px" zoomAndPan="magnify"><defs/><g><!--cluster 8a92edf33f5e6cd804df4991059efd14--><g id="cluster_8a92edf33f5e6cd804df4991059efd14"><polygon fill="none" points="16,16,26,6,663,6,663,517.78,653,527.78,16,527.78,16,16" style="stroke:#181818;stroke-width:1.0;"/><line style="stroke:#181818;stroke-width:1.0;" x1="653" x2="663" y1="16" y2="6"/><line style="stroke:#181818;stroke-width:1.0;" x1="16" x2="653" y1="16" y2="16"/><line style="stroke:#181818;stroke-width:1.0;" x1="653" x2="653" y1="16" y2="527.78"/><text fill="#000000" font-family="sans-serif" font-size="14" font-weight="bold" lengthAdjust="spacing" textLength="64" x="303.5" y="31.9951">Weblate</text></g><!--cluster 11e0eed8d3696c0a632f822df385ab3c--><g id="cluster_11e0eed8d3696c0a632f822df385ab3c"><polygon fill="none" points="849,16,859,6,1319,6,1319,517.78,1309,527.78,849,527.78,849,16" style="stroke:#181818;stroke-width:1.0;"/><line style="stroke:#181818;stroke-width:1.0;" x1="1309" x2="1319" y1="16" y2="6"/><line style="stroke:#181818;stroke-width:1.0;" x1="849" x2="1309" y1="16" y2="16"/><line style="stroke:#181818;stroke-width:1.0;" x1="1309" x2="1309" y1="16" y2="527.78"/><text fill="#000000" font-family="sans-serif" font-size="14" font-weight="bold" lengthAdjust="spacing" textLength="73" x="1043.5" y="31.9951">Database</text></g><!--cluster 0fea6a13c52b4d4725368f24b045ca84--><g id="cluster_0fea6a13c52b4d4725368f24b045ca84"><polygon fill="none" points="1405,16,1415,6,1621,6,1621,517.78,1611,527.78,1405,527.78,1405,16" style="stroke:#181818;stroke-width:1.0;"/><line style="stroke:#181818;stroke-width:1.0;" x1="1611" x2="1621" y1="16" y2="6"/><line style="stroke:#181818;stroke-width:1.0;" x1="1405" x2="1611" y1="16" y2="16"/><line style="stroke:#181818;stroke-width:1.0;" x1="1611" x2="1611" y1="16" y2="527.78"/><text fill="#000000" font-family="sans-serif" font-size="14" font-weight="bold" lengthAdjust="spacing" textLength="49" x="1484.5" y="31.9951">Cache</text></g><!--entity e487e1035b3a55fb9a89d253bcff0750--><g id="elem_e487e1035b3a55fb9a89d253bcff0750"><rect fill="#F1F1F1" height="111.4844" rx="2.5" ry="2.5" style="stroke:#181818;stroke-width:0.5;" width="218" x="296" y="46"/><rect fill="#F1F1F1" height="10" style="stroke:#181818;stroke-width:0.5;" width="15" x="494" y="51"/><rect fill="#F1F1F1" height="2" style="stroke:#181818;stroke-width:0.5;" width="4" x="492" y="53"/><rect fill="#F1F1F1" height="2" style="stroke:#181818;stroke-width:0.5;" width="4" x="492" y="57"/><text fill="#000000" font-family="sans-serif" font-size="14" font-weight="bold" lengthAdjust="spacing" textLength="63" x="311" y="78.9951">weblate</text><text fill="#000000" font-family="sans-serif" font-size="14" lengthAdjust="spacing" textLength="4" x="311" y="95.292">&#160;</text><text fill="#000000" font-family="sans-serif" font-size="14" lengthAdjust="spacing" textLength="178" x="311" y="111.5889">image: weblate-dev:latest</text><text fill="#000000" font-family="sans-serif" font-size="14" lengthAdjust="spacing" textLength="99" x="311" y="127.8857">restart: always</text><text fill="#000000" font-family="sans-serif" font-size="14" lengthAdjust="spacing" textLength="4" x="311" y="144.1826">&#160;</text></g><!--entity 58a358b4c3fccb3e8bf394ab635add47--><g id="elem_58a358b4c3fccb3e8bf394ab635add47"><ellipse cx="544" cy="247.49" fill="#F1F1F1" rx="8" ry="8" style="stroke:#181818;stroke-width:0.5;"/><text fill="#000000" font-family="sans-serif" font-size="14" lengthAdjust="spacing" textLength="36" x="526" y="277.4851">8080</text></g><!--entity 45fb4fc9a2871e078602b0c313c9ac13--><g id="elem_45fb4fc9a2871e078602b0c313c9ac13"><rect fill="#F1F1F1" height="39.2969" rx="2.5" ry="2.5" style="stroke:#181818;stroke-width:0.5;" width="96" x="32" y="472.49"/><polygon fill="#F1F1F1" points="111,477.49,111,491.49,123,491.49,123,483.49,117,477.49,111,477.49" style="stroke:#181818;stroke-width:0.5;"/><line style="stroke:#181818;stroke-width:0.5;" x1="117" x2="117" y1="477.49" y2="483.49"/><line style="stroke:#181818;stroke-width:0.5;" x1="123" x2="117" y1="483.49" y2="483.49"/><text fill="#000000" font-family="sans-serif" font-size="14" lengthAdjust="spacing" textLength="66" x="42" y="498.4851">/app/data</text></g><!--entity 1d8e8c218b4c71c629f68669d0c4713b--><g id="elem_1d8e8c218b4c71c629f68669d0c4713b"><rect fill="#F1F1F1" height="39.2969" rx="2.5" ry="2.5" style="stroke:#181818;stroke-width:0.5;" width="484" x="163" y="472.49"/><polygon fill="#F1F1F1" points="630,477.49,630,491.49,642,491.49,642,483.49,636,477.49,630,477.49" style="stroke:#181818;stroke-width:0.5;"/><line style="stroke:#181818;stroke-width:0.5;" x1="636" x2="636" y1="477.49" y2="483.49"/><line style="stroke:#181818;stroke-width:0.5;" x1="642" x2="636" y1="483.49" y2="483.49"/><text fill="#000000" font-family="sans-serif" font-size="14" lengthAdjust="spacing" textLength="454" x="173" y="498.4851">/app/venv/lib/python${DOCKER_PYTHON}/site-packages/weblate</text></g><!--entity 7357329cc0f0b64acb1bd02867aa8271--><g id="elem_7357329cc0f0b64acb1bd02867aa8271"><rect fill="#F1F1F1" height="111.4844" rx="2.5" ry="2.5" style="stroke:#181818;stroke-width:0.5;" width="222" x="1081" y="46"/><rect fill="#F1F1F1" height="10" style="stroke:#181818;stroke-width:0.5;" width="15" x="1283" y="51"/><rect fill="#F1F1F1" height="2" style="stroke:#181818;stroke-width:0.5;" width="4" x="1281" y="53"/><rect fill="#F1F1F1" height="2" style="stroke:#181818;stroke-width:0.5;" width="4" x="1281" y="57"/><text fill="#000000" font-family="sans-serif" font-size="14" font-weight="bold" lengthAdjust="spacing" textLength="72" x="1096" y="78.9951">database</text><text fill="#000000" font-family="sans-serif" font-size="14" lengthAdjust="spacing" textLength="4" x="1096" y="95.292">&#160;</text><text fill="#000000" font-family="sans-serif" font-size="14" lengthAdjust="spacing" textLength="182" x="1096" y="111.5889">image: postgres:16-alpine</text><text fill="#000000" font-family="sans-serif" font-size="14" lengthAdjust="spacing" textLength="99" x="1096" y="127.8857">restart: always</text><text fill="#000000" font-family="sans-serif" font-size="14" lengthAdjust="spacing" textLength="4" x="1096" y="144.1826">&#160;</text></g><!--entity 229e06125ca47deb9c187e577d5365fc--><g id="elem_229e06125ca47deb9c187e577d5365fc"><ellipse cx="1267" cy="247.49" fill="#F1F1F1" rx="8" ry="8" style="stroke:#181818;stroke-width:0.5;"/><text fill="#000000" font-family="sans-serif" font-size="14" lengthAdjust="spacing" textLength="36" x="1249" y="277.4851">5432</text></g><!--entity e7a9aed0d296fd0dc55a0da757ff0231--><g id="elem_e7a9aed0d296fd0dc55a0da757ff0231"><rect fill="#F1F1F1" height="39.2969" rx="2.5" ry="2.5" style="stroke:#181818;stroke-width:0.5;" width="189" x="865.5" y="472.49"/><polygon fill="#F1F1F1" points="1037.5,477.49,1037.5,491.49,1049.5,491.49,1049.5,483.49,1043.5,477.49,1037.5,477.49" style="stroke:#181818;stroke-width:0.5;"/><line style="stroke:#181818;stroke-width:0.5;" x1="1043.5" x2="1043.5" y1="477.49" y2="483.49"/><line style="stroke:#181818;stroke-width:0.5;" x1="1049.5" x2="1043.5" y1="483.49" y2="483.49"/><text fill="#000000" font-family="sans-serif" font-size="14" lengthAdjust="spacing" textLength="159" x="875.5" y="498.4851">/var/lib/postgresql/data</text></g><!--entity 0c663ef0e6bed9db33f63e79c86400bc--><g id="elem_0c663ef0e6bed9db33f63e79c86400bc"><rect fill="#F1F1F1" height="39.2969" rx="2.5" ry="2.5" style="stroke:#181818;stroke-width:0.5;" width="214" x="1089" y="472.49"/><polygon fill="#F1F1F1" points="1286,477.49,1286,491.49,1298,491.49,1298,483.49,1292,477.49,1286,477.49" style="stroke:#181818;stroke-width:0.5;"/><line style="stroke:#181818;stroke-width:0.5;" x1="1292" x2="1292" y1="477.49" y2="483.49"/><line style="stroke:#181818;stroke-width:0.5;" x1="1298" x2="1292" y1="483.49" y2="483.49"/><text fill="#000000" font-family="sans-serif" font-size="14" lengthAdjust="spacing" textLength="184" x="1099" y="498.4851">/docker-entrypoint-initdb.d</text></g><!--entity 8350c79911205511c52fed4320dde103--><g id="elem_8350c79911205511c52fed4320dde103"><rect fill="#F1F1F1" height="111.4844" rx="2.5" ry="2.5" style="stroke:#181818;stroke-width:0.5;" width="185" x="1420.5" y="46"/><rect fill="#F1F1F1" height="10" style="stroke:#181818;stroke-width:0.5;" width="15" x="1585.5" y="51"/><rect fill="#F1F1F1" height="2" style="stroke:#181818;stroke-width:0.5;" width="4" x="1583.5" y="53"/><rect fill="#F1F1F1" height="2" style="stroke:#181818;stroke-width:0.5;" width="4" x="1583.5" y="57"/><text fill="#000000" font-family="sans-serif" font-size="14" font-weight="bold" lengthAdjust="spacing" textLength="47" x="1435.5" y="78.9951">cache</text><text fill="#000000" font-family="sans-serif" font-size="14" lengthAdjust="spacing" textLength="4" x="1435.5" y="95.292">&#160;</text><text fill="#000000" font-family="sans-serif" font-size="14" lengthAdjust="spacing" textLength="145" x="1435.5" y="111.5889">image: redis:7-alpine</text><text fill="#000000" font-family="sans-serif" font-size="14" lengthAdjust="spacing" textLength="99" x="1435.5" y="127.8857">restart: always</text><text fill="#000000" font-family="sans-serif" font-size="14" lengthAdjust="spacing" textLength="4" x="1435.5" y="144.1826">&#160;</text></g><!--entity a0641724395b928e2de8f4e2cf3662bb--><g id="elem_a0641724395b928e2de8f4e2cf3662bb"><rect fill="#F1F1F1" height="39.2969" rx="2.5" ry="2.5" style="stroke:#181818;stroke-width:0.5;" width="65" x="1480.5" y="472.49"/><polygon fill="#F1F1F1" points="1528.5,477.49,1528.5,491.49,1540.5,491.49,1540.5,483.49,1534.5,477.49,1528.5,477.49" style="stroke:#181818;stroke-width:0.5;"/><line style="stroke:#181818;stroke-width:0.5;" x1="1534.5" x2="1534.5" y1="477.49" y2="483.49"/><line style="stroke:#181818;stroke-width:0.5;" x1="1540.5" x2="1534.5" y1="483.49" y2="483.49"/><text fill="#000000" font-family="sans-serif" font-size="14" lengthAdjust="spacing" textLength="35" x="1490.5" y="498.4851">/data</text></g><!--entity 1e0b79e47bc72607faec10f6fa35f7de--><g id="elem_1e0b79e47bc72607faec10f6fa35f7de"><ellipse cx="756" cy="382.49" fill="#F1F1F1" rx="8" ry="8" style="stroke:#181818;stroke-width:0.5;"/><text fill="#000000" font-family="sans-serif" font-size="14" lengthAdjust="spacing" textLength="139" x="686.5" y="412.4851">${WEBLATE_HOST}</text></g><!--entity c133dae7a45c449457a1a9b2344d3ffc--><g id="elem_c133dae7a45c449457a1a9b2344d3ffc"><ellipse cx="1362" cy="382.49" fill="#F1F1F1" rx="8" ry="8" style="stroke:#181818;stroke-width:0.5;"/><text fill="#000000" font-family="sans-serif" font-size="14" lengthAdjust="spacing" textLength="36" x="1344" y="412.4851">5433</text></g><!--entity 2e4ee26db2b55c1a589cd53428767184--><g id="elem_2e4ee26db2b55c1a589cd53428767184"><rect fill="#F1F1F1" height="39.2969" rx="2.5" ry="2.5" style="stroke:#181818;stroke-width:0.5;" width="107" x="26.5" y="590.78"/><polygon fill="#F1F1F1" points="116.5,595.78,116.5,609.78,128.5,609.78,128.5,601.78,122.5,595.78,116.5,595.78" style="stroke:#181818;stroke-width:0.5;"/><line style="stroke:#181818;stroke-width:0.5;" x1="122.5" x2="122.5" y1="595.78" y2="601.78"/><line style="stroke:#181818;stroke-width:0.5;" x1="128.5" x2="122.5" y1="601.78" y2="601.78"/><text fill="#000000" font-family="sans-serif" font-size="14" lengthAdjust="spacing" textLength="77" x="36.5" y="616.7751">$PWD/data</text></g><!--entity 433485014f1e10acdccde340c2c60696--><g id="elem_433485014f1e10acdccde340c2c60696"><rect fill="#F1F1F1" height="39.2969" rx="2.5" ry="2.5" style="stroke:#181818;stroke-width:0.5;" width="144" x="333" y="590.78"/><polygon fill="#F1F1F1" points="460,595.78,460,609.78,472,609.78,472,601.78,466,595.78,460,595.78" style="stroke:#181818;stroke-width:0.5;"/><line style="stroke:#181818;stroke-width:0.5;" x1="466" x2="466" y1="595.78" y2="601.78"/><line style="stroke:#181818;stroke-width:0.5;" x1="472" x2="466" y1="601.78" y2="601.78"/><text fill="#000000" font-family="sans-serif" font-size="14" lengthAdjust="spacing" textLength="114" x="343" y="616.7751">$PWD/../weblate</text></g><!--entity 7a600a491cfa836be11bce188a3fa3d5--><g id="elem_7a600a491cfa836be11bce188a3fa3d5"><rect fill="#F1F1F1" height="39.2969" rx="2.5" ry="2.5" style="stroke:#181818;stroke-width:0.5;" width="127" x="896.5" y="590.78"/><polygon fill="#F1F1F1" points="1006.5,595.78,1006.5,609.78,1018.5,609.78,1018.5,601.78,1012.5,595.78,1006.5,595.78" style="stroke:#181818;stroke-width:0.5;"/><line style="stroke:#181818;stroke-width:0.5;" x1="1012.5" x2="1012.5" y1="595.78" y2="601.78"/><line style="stroke:#181818;stroke-width:0.5;" x1="1018.5" x2="1012.5" y1="601.78" y2="601.78"/><text fill="#000000" font-family="sans-serif" font-size="14" lengthAdjust="spacing" textLength="97" x="906.5" y="616.7751">postgres-data</text></g><!--entity d165282c5b42ea6e2bd63f612cb3c736--><g id="elem_d165282c5b42ea6e2bd63f612cb3c736"><rect fill="#F1F1F1" height="39.2969" rx="2.5" ry="2.5" style="stroke:#181818;stroke-width:0.5;" width="126" x="1133" y="590.78"/><polygon fill="#F1F1F1" points="1242,595.78,1242,609.78,1254,609.78,1254,601.78,1248,595.78,1242,595.78" style="stroke:#181818;stroke-width:0.5;"/><line style="stroke:#181818;stroke-width:0.5;" x1="1248" x2="1248" y1="595.78" y2="601.78"/><line style="stroke:#181818;stroke-width:0.5;" x1="1254" x2="1248" y1="601.78" y2="601.78"/><text fill="#000000" font-family="sans-serif" font-size="14" lengthAdjust="spacing" textLength="96" x="1143" y="616.7751">./postgres-init</text></g><!--entity 2e940f1c3e9ec06b88cb27d7133ae612--><g id="elem_2e940f1c3e9ec06b88cb27d7133ae612"><rect fill="#F1F1F1" height="39.2969" rx="2.5" ry="2.5" style="stroke:#181818;stroke-width:0.5;" width="99" x="1463.5" y="590.78"/><polygon fill="#F1F1F1" points="1545.5,595.78,1545.5,609.78,1557.5,609.78,1557.5,601.78,1551.5,595.78,1545.5,595.78" style="stroke:#181818;stroke-width:0.5;"/><line style="stroke:#181818;stroke-width:0.5;" x1="1551.5" x2="1551.5" y1="595.78" y2="601.78"/><line style="stroke:#181818;stroke-width:0.5;" x1="1557.5" x2="1551.5" y1="601.78" y2="601.78"/><text fill="#000000" font-family="sans-serif" font-size="14" lengthAdjust="spacing" textLength="69" x="1473.5" y="616.7751">redis-data</text></g><!--link e487e1035b3a55fb9a89d253bcff0750 to 58a358b4c3fccb3e8bf394ab635add47--><g id="link_e487e1035b3a55fb9a89d253bcff0750_58a358b4c3fccb3e8bf394ab635add47"><path codeLine="43" d="M458.34,157.91 C488.05,188.63 521.92,223.66 536.59,238.82 " fill="none" id="e487e1035b3a55fb9a89d253bcff0750-58a358b4c3fccb3e8bf394ab635add47" style="stroke:#181818;stroke-width:1.0;"/></g><!--link 58a358b4c3fccb3e8bf394ab635add47 to 1e0b79e47bc72607faec10f6fa35f7de--><g id="link_58a358b4c3fccb3e8bf394ab635add47_1e0b79e47bc72607faec10f6fa35f7de"><path codeLine="44" d="M552.84,254.03 C587.32,275.66 712.58,354.24 747.12,375.92 " fill="none" id="58a358b4c3fccb3e8bf394ab635add47-1e0b79e47bc72607faec10f6fa35f7de" style="stroke:#181818;stroke-width:1.0;"/></g><!--link 45fb4fc9a2871e078602b0c313c9ac13 to 2e4ee26db2b55c1a589cd53428767184--><g id="link_45fb4fc9a2871e078602b0c313c9ac13_2e4ee26db2b55c1a589cd53428767184"><path codeLine="45" d="M80,512.08 C80,533.7 80,568.87 80,590.5 " fill="none" id="45fb4fc9a2871e078602b0c313c9ac13-2e4ee26db2b55c1a589cd53428767184" style="stroke:#181818;stroke-width:1.0;"/><text fill="#000000" font-family="sans-serif" font-size="13" lengthAdjust="spacing" textLength="14" x="81" y="556.8469">rw</text></g><!--link e487e1035b3a55fb9a89d253bcff0750 to 45fb4fc9a2871e078602b0c313c9ac13--><g id="link_e487e1035b3a55fb9a89d253bcff0750_45fb4fc9a2871e078602b0c313c9ac13"><path codeLine="46" d="M358.78,157.98 C284.83,246.36 147.2506,410.7686 99.8106,467.4586 " fill="none" id="e487e1035b3a55fb9a89d253bcff0750-to-45fb4fc9a2871e078602b0c313c9ac13" style="stroke:#181818;stroke-width:1.0;stroke-dasharray:7.0,7.0;"/><polygon fill="#181818" points="95.96,472.06,104.8035,467.725,99.1688,468.2255,98.6683,462.5908,95.96,472.06" style="stroke:#181818;stroke-width:1.0;"/><text fill="#000000" font-family="sans-serif" font-size="13" lengthAdjust="spacing" textLength="23" x="235" y="319.5569">use</text></g><!--link 1d8e8c218b4c71c629f68669d0c4713b to 433485014f1e10acdccde340c2c60696--><g id="link_1d8e8c218b4c71c629f68669d0c4713b_433485014f1e10acdccde340c2c60696"><path codeLine="47" d="M405,512.08 C405,533.7 405,568.87 405,590.5 " fill="none" id="1d8e8c218b4c71c629f68669d0c4713b-433485014f1e10acdccde340c2c60696" style="stroke:#181818;stroke-width:1.0;"/><text fill="#000000" font-family="sans-serif" font-size="13" lengthAdjust="spacing" textLength="14" x="406" y="556.8469">rw</text></g><!--link e487e1035b3a55fb9a89d253bcff0750 to 1d8e8c218b4c71c629f68669d0c4713b--><g id="link_e487e1035b3a55fb9a89d253bcff0750_1d8e8c218b4c71c629f68669d0c4713b"><path codeLine="48" d="M405,157.98 C405,246.36 405,409.37 405,466.06 " fill="none" id="e487e1035b3a55fb9a89d253bcff0750-to-1d8e8c218b4c71c629f68669d0c4713b" style="stroke:#181818;stroke-width:1.0;stroke-dasharray:7.0,7.0;"/><polygon fill="#181818" points="405,472.06,409,463.06,405,467.06,401,463.06,405,472.06" style="stroke:#181818;stroke-width:1.0;"/><text fill="#000000" font-family="sans-serif" font-size="13" lengthAdjust="spacing" textLength="23" x="406" y="319.5569">use</text></g><!--link 7357329cc0f0b64acb1bd02867aa8271 to 229e06125ca47deb9c187e577d5365fc--><g id="link_7357329cc0f0b64acb1bd02867aa8271_229e06125ca47deb9c187e577d5365fc"><path codeLine="49" d="M1220.78,157.91 C1236.81,188.63 1255.09,223.66 1263,238.82 " fill="none" id="7357329cc0f0b64acb1bd02867aa8271-229e06125ca47deb9c187e577d5365fc" style="stroke:#181818;stroke-width:1.0;"/></g><!--link 229e06125ca47deb9c187e577d5365fc to c133dae7a45c449457a1a9b2344d3ffc--><g id="link_229e06125ca47deb9c187e577d5365fc_c133dae7a45c449457a1a9b2344d3ffc"><path codeLine="50" d="M1272.66,256.41 C1289.59,280.12 1339.75,350.34 1356.49,373.77 " fill="none" id="229e06125ca47deb9c187e577d5365fc-c133dae7a45c449457a1a9b2344d3ffc" style="stroke:#181818;stroke-width:1.0;"/></g><!--link e7a9aed0d296fd0dc55a0da757ff0231 to 7a600a491cfa836be11bce188a3fa3d5--><g id="link_e7a9aed0d296fd0dc55a0da757ff0231_7a600a491cfa836be11bce188a3fa3d5"><path codeLine="51" d="M960,512.08 C960,533.7 960,568.87 960,590.5 " fill="none" id="e7a9aed0d296fd0dc55a0da757ff0231-7a600a491cfa836be11bce188a3fa3d5" style="stroke:#181818;stroke-width:1.0;"/><text fill="#000000" font-family="sans-serif" font-size="13" lengthAdjust="spacing" textLength="14" x="961" y="556.8469">rw</text></g><!--link 7357329cc0f0b64acb1bd02867aa8271 to e7a9aed0d296fd0dc55a0da757ff0231--><g id="link_7357329cc0f0b64acb1bd02867aa8271_e7a9aed0d296fd0dc55a0da757ff0231"><path codeLine="52" d="M1159.01,157.98 C1106.21,246.36 1008.3267,410.2189 974.4667,466.9089 " fill="none" id="7357329cc0f0b64acb1bd02867aa8271-to-e7a9aed0d296fd0dc55a0da757ff0231" style="stroke:#181818;stroke-width:1.0;stroke-dasharray:7.0,7.0;"/><polygon fill="#181818" points="971.39,472.06,979.4391,466.3844,973.9539,467.7674,972.5709,462.2822,971.39,472.06" style="stroke:#181818;stroke-width:1.0;"/><text fill="#000000" font-family="sans-serif" font-size="13" lengthAdjust="spacing" textLength="23" x="1070" y="319.5569">use</text></g><!--link 0c663ef0e6bed9db33f63e79c86400bc to d165282c5b42ea6e2bd63f612cb3c736--><g id="link_0c663ef0e6bed9db33f63e79c86400bc_d165282c5b42ea6e2bd63f612cb3c736"><path codeLine="53" d="M1196,512.08 C1196,533.7 1196,568.87 1196,590.5 " fill="none" id="0c663ef0e6bed9db33f63e79c86400bc-d165282c5b42ea6e2bd63f612cb3c736" style="stroke:#181818;stroke-width:1.0;"/><text fill="#000000" font-family="sans-serif" font-size="13" lengthAdjust="spacing" textLength="14" x="1197" y="556.8469">rw</text></g><!--link 7357329cc0f0b64acb1bd02867aa8271 to 0c663ef0e6bed9db33f63e79c86400bc--><g id="link_7357329cc0f0b64acb1bd02867aa8271_0c663ef0e6bed9db33f63e79c86400bc"><path codeLine="54" d="M1192.57,157.98 C1193.48,246.36 1195.1586,409.3703 1195.7386,466.0603 " fill="none" id="7357329cc0f0b64acb1bd02867aa8271-to-0c663ef0e6bed9db33f63e79c86400bc" style="stroke:#181818;stroke-width:1.0;stroke-dasharray:7.0,7.0;"/><polygon fill="#181818" points="1195.8,472.06,1199.7077,463.0195,1195.7488,467.0603,1191.7081,463.1014,1195.8,472.06" style="stroke:#181818;stroke-width:1.0;"/><text fill="#000000" font-family="sans-serif" font-size="13" lengthAdjust="spacing" textLength="23" x="1195" y="319.5569">use</text></g><!--link a0641724395b928e2de8f4e2cf3662bb to 2e940f1c3e9ec06b88cb27d7133ae612--><g id="link_a0641724395b928e2de8f4e2cf3662bb_2e940f1c3e9ec06b88cb27d7133ae612"><path codeLine="55" d="M1513,512.08 C1513,533.7 1513,568.87 1513,590.5 " fill="none" id="a0641724395b928e2de8f4e2cf3662bb-2e940f1c3e9ec06b88cb27d7133ae612" style="stroke:#181818;stroke-width:1.0;"/><text fill="#000000" font-family="sans-serif" font-size="13" lengthAdjust="spacing" textLength="14" x="1514" y="556.8469">rw</text></g><!--link 8350c79911205511c52fed4320dde103 to a0641724395b928e2de8f4e2cf3662bb--><g id="link_8350c79911205511c52fed4320dde103_a0641724395b928e2de8f4e2cf3662bb"><path codeLine="56" d="M1513,157.98 C1513,246.36 1513,409.37 1513,466.06 " fill="none" id="8350c79911205511c52fed4320dde103-to-a0641724395b928e2de8f4e2cf3662bb" style="stroke:#181818;stroke-width:1.0;stroke-dasharray:7.0,7.0;"/><polygon fill="#181818" points="1513,472.06,1517,463.06,1513,467.06,1509,463.06,1513,472.06" style="stroke:#181818;stroke-width:1.0;"/><text fill="#000000" font-family="sans-serif" font-size="13" lengthAdjust="spacing" textLength="23" x="1514" y="319.5569">use</text></g><!--SRC=[bLJRQYDN47oVhnYC7nA3f7E_w26Gh0qB2V6I64m8OUdJtSShLfOKIR5ZZFyzhR7abGtPmxxeCantLrTL5ypdo_lRsR-pnKstM1Bt9zTSvh3banusVO9icAgrrND0IifHTJbhvJDNqgv_x7fStgwM2rviUtOfibRM5mlUrv8XPJBU5gnLHQ_wFxkpi_ldzcTdNJUxXHkUzlid8-AxwUx7PjkjvGFMssaFytjus7JTNzrtt_SdIIKruF89h4_5eQs8nN8grMO79LWFH2vsKZohWDl-P0AhrOHW2qEX4rYkOWQJecOLKr2cABJQoZFKzctX7I_k9lDPcQmUjf-MYzF7yyjtFr_yzl737rVlBtzzccnc0dm5-5assKpkZwZJb3YXqJkKKMCmkOOKGYQ5BcfRkgSzt-U2hS1cNoMWc2cH3JcWWc1DJSQ81Cb3iVYQy6Xzj2OZggfAS8155r8cXGYGJDG3uRJlVyJuQhdPtWZ7Knr6C5_D5ln_Z7jdpG3CcCmgQECHN2Gk6RM8xMCaRuElU4pS7QoVETkF-Nl-HG2Ea859aScXoXTw3ueW-YWUCLOVzw4bVkRrI3PTFwoMiyLsD5lCjbJ6DBHI68BbgZWKfan5N2h_OyOKd585NnX-1_ZfcLvL6GA8sDuK9puHSuPKZIlAoMBfZP-JzGgZs5qRvRtMKbMPX155jFFvG2_kcXznksQQRQRnAxmURtYW1LHmEXfdio_P93R4gJesM6q8fkpSifFZzF7wugTVVhow-FZ-ylUhfsVBi2eniui5emagLc3KgeOg9r95geEETdXRF6u9H0LPsBdiV0GDkHZh7DdwIiVJ3zVdNn0QTimcK375UzJWKqRHtiaXXQYJUriu7hyw1vdlabVQLItK0H8YiNKA3GObNZygFzXcz38xGb0ANDPO8LcHM-k2h9EaW6n9_gXu_EAwmIn3EUdWJJBeYpEYFvj2GRoYZKG7HdiyUr1lTBHqTgfgj9mPLIWfOJ6Hv7uji3Jecf4teb4xhLel35sQEhUoRUZIah6V2Wdt9-t5ncCQZtze1kgktpyIRbqh3mTqBPTyAxhcq0EwPf8EtBKoiFN2qALvWQs87BgqJkB0L7EnFLFDeGUcMgaxe6jTtBUYQmuze6lbwFu6ldxL1tJD_D-ZQmxTe_iF]--></g></svg>