<?xml version="1.0" encoding="UTF-8"?>
<svg width="14px" height="14px" viewBox="0 0 14 14" version="1.1" xmlns="http://www.w3.org/2000/svg" xmlns:xlink="http://www.w3.org/1999/xlink">
    <!-- Generator: sketchtool 54.1 (76490) - https://sketchapp.com -->
    <title>CF65C3FA-FC77-4174-BF3A-53EF2F7AD836</title>
    <desc>Created with sketchtool.</desc>
    <g id="App-UI" stroke="none" stroke-width="1" fill="none" fill-rule="evenodd">
        <g id="Overview" transform="translate(-224.000000, -379.000000)" fill="#F6664C" fill-rule="nonzero">
            <g id="MiniAlert" transform="translate(224.000000, 379.000000)">
                <path d="M12,-0 C13.1045695,-5.68295411e-14 14,0.8954305 14,2 L14,12 C14,13.1045695 13.1045695,14 12,14 L2,14 C0.8954305,14 0,13.1045695 0,12 L0,2 C0,0.8954305 0.8954305,-5.68295411e-14 2,-0 L12,-0 Z M8,3 L6,3 L6,7 L8,7 L8,3 Z M8,11 L8,9 L6,9 L6,11 L8,11 Z" id="Shape"></path>
            </g>
        </g>
    </g>
</svg>