<svg xmlns="http://www.w3.org/2000/svg" width="14" height="14" version="1.1" viewBox="0 0 14 14"><path fill="#e9eaec" stroke-width=".692" d="m7 0.079046a6.2289 6.2289 0 0 0-6.2289 6.2289v7.613l2.0763-2.0763 2.0763 2.0763 2.0763-2.0763 2.0763 2.0763 2.0763-2.0763 2.0763 2.0763v-7.613a6.2289 6.2289 0 0 0-6.2289-6.2289m-2.0763 4.1526a1.3842 1.3842 0 0 1 1.3842 1.3842 1.3842 1.3842 0 0 1-1.3842 1.3842 1.3842 1.3842 0 0 1-1.3842-1.3842 1.3842 1.3842 0 0 1 1.3842-1.3842m4.1526 0a1.3842 1.3842 0 0 1 1.3842 1.3842 1.3842 1.3842 0 0 1-1.3842 1.3842 1.3842 1.3842 0 0 1-1.3842-1.3842 1.3842 1.3842 0 0 1 1.3842-1.3842z"/></svg>