<svg width="14" height="14" version="1.1" viewBox="0 0 14 14" xmlns="http://www.w3.org/2000/svg"><path d="m12.492 2.1185c-0.6773-0.21356-1.4217-0.30509-2.1356-0.30509-1.1899 0-2.4712 0.24407-3.356 0.91527-0.88476-0.6712-2.1661-0.91527-3.356-0.91527s-2.4712 0.24407-3.356 0.91527v8.9392c0 0.15254 0.15255 0.30509 0.30509 0.30509 0.061018 0 0.091528-0.03051 0.15255-0.03051 0.82375-0.39662 2.0136-0.6712 2.8984-0.6712 1.1899 0 2.4712 0.24407 3.356 0.91527 0.82375-0.51866 2.3187-0.91527 3.356-0.91527 1.0068 0 2.0441 0.18306 2.8984 0.64069 0.06102 0.03051 0.09153 0.03051 0.15254 0.03051 0.15255 0 0.30509-0.15254 0.30509-0.30509v-8.9087c-0.36611-0.27458-0.76273-0.45764-1.2204-0.61018m0 8.2375c-0.6712-0.21356-1.4034-0.30509-2.1356-0.30509-1.0373 0-2.5323 0.39662-3.356 0.91527v-7.0171c0.82375-0.51866 2.3187-0.91527 3.356-0.91527 0.73222 0 1.4644 0.091528 2.1356 0.30509z" stroke-width=".61018"/></svg>