<svg width="14" height="14" version="1.1" viewBox="0 0 14 14" xmlns="http://www.w3.org/2000/svg"><g transform="matrix(.87023 0 0 .87023 .038136 2.6488)" fill="none" fill-rule="evenodd"><g transform="translate(-210,-331)" fill="#2a3744" fill-rule="nonzero"><g transform="translate(210,331)"><path d="m5 1.9h2v-1.9h-2c-2.7614 0-5 2.2386-5 5s2.2386 5 5 5h2v-1.9h-2c-1.71 0-3.1-1.39-3.1-3.1s1.39-3.1 3.1-3.1zm6 4.1v-2h-6v2zm0-6h-2v1.9h2c1.71 0 3.1 1.39 3.1 3.1s-1.39 3.1-3.1 3.1h-2v1.9h2c2.7614 0 5-2.2386 5-5s-2.2386-5-5-5z"/></g></g></g></svg>