<?xml version="1.0" encoding="UTF-8" standalone="no"?>
<svg
   xmlns:dc="http://purl.org/dc/elements/1.1/"
   xmlns:cc="http://creativecommons.org/ns#"
   xmlns:rdf="http://www.w3.org/1999/02/22-rdf-syntax-ns#"
   xmlns:svg="http://www.w3.org/2000/svg"
   xmlns="http://www.w3.org/2000/svg"
   xmlns:sodipodi="http://sodipodi.sourceforge.net/DTD/sodipodi-0.dtd"
   xmlns:inkscape="http://www.inkscape.org/namespaces/inkscape"
   width="14"
   height="14"
   viewBox="0 0 14 14"
   version="1.1"
   id="svg10"
   sodipodi:docname="link.svg"
   inkscape:version="0.92.4 (5da689c313, 2019-01-14)">
  <metadata
     id="metadata16">
    <rdf:RDF>
      <cc:Work
         rdf:about="">
        <dc:format>image/svg+xml</dc:format>
        <dc:type
           rdf:resource="http://purl.org/dc/dcmitype/StillImage" />
        <dc:title>96EDDF85-A11B-4DD5-A006-FE64E83A11B7</dc:title>
      </cc:Work>
    </rdf:RDF>
  </metadata>
  <defs
     id="defs14" />
  <sodipodi:namedview
     pagecolor="#ffffff"
     bordercolor="#666666"
     borderopacity="1"
     objecttolerance="10"
     gridtolerance="10"
     guidetolerance="10"
     inkscape:pageopacity="0"
     inkscape:pageshadow="2"
     inkscape:window-width="1920"
     inkscape:window-height="1136"
     id="namedview12"
     showgrid="false"
     inkscape:zoom="23.6"
     inkscape:cx="8.0847458"
     inkscape:cy="5"
     inkscape:window-x="0"
     inkscape:window-y="27"
     inkscape:window-maximized="1"
     inkscape:current-layer="svg10" />
  <!-- Generator: sketchtool 54.1 (76490) - https://sketchapp.com -->
  <title
     id="title2">96EDDF85-A11B-4DD5-A006-FE64E83A11B7</title>
  <desc
     id="desc4">Created with sketchtool.</desc>
  <g
     id="App-UI"
     style="fill:none;fill-rule:evenodd;stroke:none;stroke-width:1"
     transform="matrix(0.87023305,0,0,0.87023305,0.0381356,2.6488348)">
    <g
       id="Overview"
       transform="translate(-210,-331)"
       style="fill:#2a3744;fill-rule:nonzero">
      <g
         id="MiniLink"
         transform="translate(210,331)">
        <path
           d="M 5,1.9 H 7 V 0 H 5 C 2.2385763,0 0,2.2385763 0,5 0,7.7614237 2.2385763,10 5,10 H 7 V 8.1 H 5 C 3.29,8.1 1.9,6.71 1.9,5 1.9,3.29 3.29,1.9 5,1.9 Z M 11,6 V 4 H 5 V 6 Z M 11,0 H 9 v 1.9 h 2 c 1.71,0 3.1,1.39 3.1,3.1 0,1.71 -1.39,3.1 -3.1,3.1 H 9 V 10 h 2 c 2.761424,0 5,-2.2385763 5,-5 0,-2.7614237 -2.238576,-5 -5,-5 z"
           id="Shape"
           inkscape:connector-curvature="0" />
      </g>
    </g>
  </g>
</svg>
