<?xml version="1.0" encoding="UTF-8"?>
<svg width="16px" height="10px" viewBox="0 0 16 10" version="1.1" xmlns="http://www.w3.org/2000/svg" xmlns:xlink="http://www.w3.org/1999/xlink">
    <!-- Generator: sketchtool 54.1 (76490) - https://sketchapp.com -->
    <title>96EDDF85-A11B-4DD5-A006-FE64E83A11B7</title>
    <desc>Created with sketchtool.</desc>
    <g id="App-UI" stroke="none" stroke-width="1" fill="none" fill-rule="evenodd">
        <g id="Overview" transform="translate(-210.000000, -331.000000)" fill="#2A3744" fill-rule="nonzero">
            <g id="MiniLink" transform="translate(210.000000, 331.000000)">
                <path d="M5,1.9 L7,1.9 L7,0 L5,0 C2.23857625,1.77635684e-15 0,2.23857625 0,5 C0,7.76142375 2.23857625,10 5,10 L7,10 L7,8.1 L5,8.1 C3.29,8.1 1.9,6.71 1.9,5 C1.9,3.29 3.29,1.9 5,1.9 Z M11,6 L11,4 L5,4 L5,6 L11,6 Z M11,0 L9,0 L9,1.9 L11,1.9 C12.71,1.9 14.1,3.29 14.1,5 C14.1,6.71 12.71,8.1 11,8.1 L9,8.1 L9,10 L11,10 C13.7614237,10 16,7.76142375 16,5 C16,2.23857625 13.7614237,1.77635684e-15 11,0 Z" id="Shape"></path>
            </g>
        </g>
    </g>
</svg>