<svg xmlns="http://www.w3.org/2000/svg" width="14" height="14" version="1.1" viewBox="0 0 14 14"><path fill="#2a3744" stroke-width=".87" d="m4.3893 4.3022h1.7405v-1.6534h-1.7405c-2.4031 0-4.3512 1.9481-4.3512 4.3512s1.9481 4.3512 4.3512 4.3512h1.7405v-1.6534h-1.7405c-1.4881 0-2.6977-1.2096-2.6977-2.6977s1.2096-2.6977 2.6977-2.6977zm5.2214 3.5679v-1.7405h-5.2214v1.7405zm0-5.2214h-1.7405v1.6534h1.7405c1.4881 0 2.6977 1.2096 2.6977 2.6977s-1.2096 2.6977-2.6977 2.6977h-1.7405v1.6534h1.7405c2.4031 0 4.3512-1.9481 4.3512-4.3512s-1.9481-4.3512-4.3512-4.3512z"/></svg>