<svg xmlns="http://www.w3.org/2000/svg" width="14" height="14" version="1.1" viewBox="0 0 14 14"><path stroke-width=".666" d="m10.995 9.7467c-0.50605 0-0.95883 0.19976-1.3051 0.51271l-4.7476-2.7633c0.033292-0.15315 0.059927-0.30629 0.059927-0.4661s-0.026634-0.31295-0.059927-0.4661l4.6943-2.7367c0.35956 0.33293 0.83232 0.53934 1.3583 0.53934a1.9976 1.9976 0 0 0 1.9976-1.9976 1.9976 1.9976 0 0 0-1.9976-1.9976 1.9976 1.9976 0 0 0-1.9976 1.9976c0 0.15981 0.026632 0.31295 0.059929 0.4661l-4.6943 2.7367c-0.35956-0.33293-0.83232-0.53934-1.3583-0.53934a1.9976 1.9976 0 0 0-1.9976 1.9976 1.9976 1.9976 0 0 0 1.9976 1.9976c0.52603 0 0.99878-0.20642 1.3583-0.53934l4.7409 2.7633c-0.033298 0.13983-0.053274 0.28632-0.053274 0.43947 0 1.072 0.87227 1.9376 1.9443 1.9376 1.072 0 1.9443-0.86561 1.9443-1.9376a1.9443 1.9443 0 0 0-1.9443-1.9443z"/></svg>