<svg width="14" height="14" version="1.1" viewBox="0 0 14 14" xmlns="http://www.w3.org/2000/svg"><path d="m4.83 8.62c0.71262 0.54849 1.1718 1.41 1.1718 2.3788 0 1.6569-1.3431 3-3 3s-3-1.3431-3-3c0-1.3062 0.83481-2.4175 2-2.8293v-2.3414c-1.1652-0.41184-2-1.5231-2-2.8293 0-1.6569 1.3431-3 3-3s3 1.3431 3 3c0 1.3062-0.83481 2.4175-2 2.8293v0.96939c0.21975-0.10711 0.45312-0.19274 0.69775-0.2539l3.7661-0.94153c-0.29379-0.46376-0.46388-1.0136-0.46388-1.6033 0-1.6569 1.3431-3 3-3s3 1.3431 3 3-1.3431 3-3 3c-0.192 0-0.37978-0.018-0.56175-0.0525-0.33863 0.22987-0.72111 0.404-1.136 0.50772l-4.1194 1.0299c-0.12553 0.0314-0.24429 0.0775-0.35464 0.13614zm-1.8282 3.3788c0.55228 0 1-0.44772 1-1s-0.44772-1-1-1-1 0.44772-1 1 0.44772 1 1 1zm0-8c0.55228 0 1-0.44772 1-1s-0.44772-1-1-1-1 0.44772-1 1 0.44772 1 1 1zm8 1c0.55228 0 1-0.44772 1-1s-0.44772-1-1-1-1 0.44772-1 1 0.44772 1 1 1z" fill="#2a3744"/></svg>