<svg width="592" height="148" viewBox="0 0 592 148" xmlns="http://www.w3.org/2000/svg"><linearGradient id="a" x2="68.26%" y1="38.057%" y2="38.057%"><stop stop-color="#00d2e6" offset="0"/><stop stop-color="#2eccaa" offset="1"/></linearGradient><linearGradient id="b" x1="17.275%" x2="79%" y1="59.719%" y2="30.635%"><stop stop-opacity="0" offset="0"/><stop offset=".514"/><stop stop-opacity="0" offset="1"/></linearGradient><linearGradient id="c" x1="100%" x2="31.855%" y1="39.719%" y2="39.719%"><stop stop-color="#1fa385" offset="0"/><stop stop-color="#2eccaa" offset="1"/></linearGradient><g fill="none" fill-rule="evenodd"><path d="m127.25 111.61c-2.8884-0.014533-5.7666-0.6024-8.4797-1.7847-6.1117-2.6626-11.493-7.6912-15.872-14.495 1.2486-2.2193 2.3738-4.5173 3.3784-6.8535 4.4051-10.243 6.5-21.46 6.6607-32.593-0.023342-0.22083-0.041627-0.44244-0.055243-0.66483l-0.01206-0.57132c-0.009726-4.3654-0.67459-8.7898-2.1767-12.909-1.7304-4.7458-4.4887-9.4955-8.865-11.348-0.79519-0.33595-1.6316-0.47701-2.4642-0.45737-5.5049-10.289-5.6799-20.149 0-29.537 0.10115 0 0.20619 3.9293e-4 0.30734 0.0011788 6.7012 0.07387 13.34 2.1418 19.021 5.7536 15.469 9.835 23.182 29.001 23.352 47.818 0.002334 0.22083-3.89e-4 0.44126-0.007003 0.66169h0.086756c-0.022554 19.887-4.8049 40.054-14.875 56.979zm-34.3 31.216c-14.448 5.9425-31.228 5.6236-45.549-1.025-16.476-7.6475-29.065-22.512-36.818-39.479-13.262-29.022-13.566-63.715-0.98815-93.182 9.4458 3.7788 17.845-2.2397 17.845-2.2397s-0.019452 9.2605 8.9478 13.905c-9.2007 21.556-8.979 47.167 0.2412 68.173 4.4389 10.107 11.22 19.519 20.619 24.842 3.3547 1.8996 7.041 3.126 10.833 3.5862 0.014037 0.021941 0.028081 0.043876 0.042134 0.065804 6.6965 10.449 15.132 19.157 24.828 25.354z" fill="url(#a)" fill-rule="nonzero"/><path d="m127.24 111.61c-2.8869-0.015092-5.7636-0.60296-8.4755-1.7847-6.1127-2.663-11.495-7.6928-15.874-14.498 1.2494-2.2205 2.3754-4.5198 3.3806-6.8572 1.3282-3.0884 2.4463-6.2648 3.3644-9.501 2.128-7.4978 30.382 2.0181 26.072 14.371-2.2239 6.373-5.0394 12.509-8.4675 18.27zm-34.302 31.212c-14.446 5.9396-31.224 5.6198-45.543-1.0278-16.476-7.6475 0.44739-33.303 9.8465-27.981 3.3533 1.8988 7.0378 3.125 10.828 3.5856 0.01567 0.024498 0.03135 0.048989 0.04704 0.073472 6.695 10.447 15.128 19.153 24.821 25.349z" fill="url(#b)" opacity=".3"/><g fill-rule="nonzero"><path d="m56.762 54.628c-0.0066136-0.22043-0.0093369-0.44086-0.0070027-0.66169 0.17001-18.817 7.8827-37.983 23.352-47.818 5.6811-3.6118 12.32-5.6798 19.021-5.7536 0.10115-7.8585e-4 0.20619-0.0011788 0.30734-0.0011788v29.537c-0.83254-0.019646-1.669 0.12141-2.4642 0.45737-4.3763 1.8523-7.1345 6.602-8.865 11.348-1.5021 4.1191-2.1669 8.5434-2.1767 12.909l-0.01206 0.57132c-0.013616 0.2224-0.031901 0.44401-0.055243 0.66483 0.16067 11.134 2.2556 22.35 6.6607 32.593 4.9334 11.472 12.775 22.025 23.847 26.849 8.3526 3.6397 17.612 2.7811 25.182-1.5057 9.3991-5.3226 16.18-14.734 20.619-24.842 9.2202-21.006 9.4419-46.617 0.2412-68.173 8.9673-4.6444 8.9478-13.905 8.9478-13.905s8.3993 6.0185 17.845 2.2397c12.578 29.466 12.274 64.16-0.98815 93.182-7.7535 16.967-20.343 31.831-36.818 39.479-14.667 6.809-31.913 6.9792-46.591 0.58389-13.19-5.7489-23.918-16.106-31.637-28.15-11.179-17.443-16.472-38.678-16.496-59.604z" fill="url(#c)"/><path d="m259 51h8.4l3.92 23.1c0.37334 2.4733 0.75833 4.9233 1.155 7.35s0.78166 4.8533 1.155 7.28h0.28c0.46667-2.4267 0.945-4.865 1.435-7.315 0.49-2.45 0.99166-4.8883 1.505-7.315l5.67-23.1h7l5.67 23.1c0.51334 2.38 1.015 4.795 1.505 7.245 0.49 2.45 0.99166 4.9117 1.505 7.385h0.28c0.37334-2.4733 0.74666-4.9233 1.12-7.35l1.12-7.28 3.92-23.1h7.84l-8.82 45.78h-10.08l-5.67-24.08c-0.37334-1.7733-0.72333-3.535-1.05-5.285-0.32667-1.75-0.65333-3.5117-0.98-5.285h-0.28c-0.32667 1.7733-0.65333 3.535-0.98 5.285-0.32667 1.75-0.67666 3.5117-1.05 5.285l-5.53 24.08h-9.94zm69.743 0h27.51v6.86h-19.39v11.69h16.45v6.86h-16.45v13.51h20.09v6.86h-28.21zm46.713 0h14.63c2.3333 0 4.5033 0.19833 6.51 0.595 2.0067 0.39667 3.7333 1.0267 5.18 1.89 1.4467 0.86334 2.5783 2.0183 3.395 3.465s1.225 3.22 1.225 5.32c0 2.1933-0.62999 4.2233-1.89 6.09s-3.2433 3.15-5.95 3.85v0.28c3.3134 0.56 5.8567 1.7383 7.63 3.535 1.7733 1.7967 2.66 4.235 2.66 7.315 0 2.2867-0.44333 4.27-1.33 5.95s-2.1117 3.08-3.675 4.2-3.4183 1.9483-5.565 2.485c-2.1467 0.53667-4.48 0.805-7 0.805h-15.82zm13.86 18.97c3.22 0 5.5417-0.58333 6.965-1.75 1.4233-1.1667 2.135-2.8233 2.135-4.97 0-2.1-0.73499-3.6167-2.205-4.55s-3.6983-1.4-6.685-1.4h-5.95v12.67zm1.12 20.51c3.36 0 5.9383-0.62999 7.735-1.89s2.695-3.1967 2.695-5.81c0-2.38-0.88666-4.1417-2.66-5.285-1.7733-1.1433-4.3633-1.715-7.77-1.715h-6.86v14.7zm35.933-39.48h8.12v38.92h18.97v6.86h-27.09zm63.653 27.02-1.61-5.6c-0.7-2.4267-1.4-4.9233-2.1-7.49-0.7-2.5667-1.3767-5.11-2.03-7.63h-0.28c-0.65334 2.5667-1.3067 5.1217-1.96 7.665-0.65334 2.5433-1.3533 5.0283-2.1 7.455l-1.61 5.6zm1.82 6.37h-15.33l-3.57 12.39h-8.33l14.98-45.78h9.52l14.91 45.78h-8.61zm33.413-26.53h-13.23v-6.86h34.51v6.86h-13.16v38.92h-8.12zm38.103-6.86h27.51v6.86h-19.39v11.69h16.45v6.86h-16.45v13.51h20.09v6.86h-28.21z" fill="#2a3744"/></g></g></svg>